<svg width="714" height="150" viewBox="0 0 714 150" fill="none" xmlns="http://www.w3.org/2000/svg">
<path fill-rule="evenodd" clip-rule="evenodd" d="M246.242 27.589V2.14258H211.396V27.3211H246.242V27.589Z" fill="#273681"/>
<path fill-rule="evenodd" clip-rule="evenodd" d="M213.809 148.125H174.674L108.467 31.6069L72.0128 95.6247H118.117L146.261 117.321H59.6828L42.2598 147.857H3.3933L86.4873 2.14258H130.983L213.809 148.125Z" fill="#273681"/>
<path fill-rule="evenodd" clip-rule="evenodd" d="M553.69 148.125H514.555L448.348 31.6069L411.894 95.6247H457.998L486.143 117.321H399.564L382.141 147.857H343.275L426.369 2.14258H470.864L553.69 148.125Z" fill="#273681"/>
<path fill-rule="evenodd" clip-rule="evenodd" d="M400.904 27.589V2.14258H255.088V27.3211H400.904V27.589Z" fill="#273681"/>
<path fill-rule="evenodd" clip-rule="evenodd" d="M589.608 27.589H668.413C671.63 27.589 678.331 29.1961 678.331 35.3569V39.9104H709.96V35.6247C709.96 17.4104 696.29 2.14258 679.671 2.14258H578.618C561.731 2.14258 548.061 17.4104 548.061 35.6247V114.643C548.061 132.857 561.731 148.125 578.618 148.125H679.671C696.29 148.125 709.96 132.857 709.96 114.643V110.357H678.331V114.91C678.331 120.803 671.362 122.678 668.413 122.678H589.608C586.391 122.678 579.69 121.071 579.69 114.91V35.3569C579.69 29.1961 586.659 27.589 589.608 27.589Z" fill="#273681"/>
<path fill-rule="evenodd" clip-rule="evenodd" d="M211.128 34.8213L245.974 61.607V148.125H211.128V34.8213Z" fill="#273681"/>
<path fill-rule="evenodd" clip-rule="evenodd" d="M310.573 34.8213L345.419 61.607V148.125H310.573V34.8213Z" fill="#273681"/>
</svg>
