<svg width="534" height="150" viewBox="0 0 534 150" fill="none" xmlns="http://www.w3.org/2000/svg">
<g clip-path="url(#clip0_531_1928)">
<path d="M174.759 119.758L173.614 118.613C164.008 109.014 151.23 103.719 137.645 103.719C124.058 103.719 111.288 109.014 101.683 118.613L101.253 119.043C98.4144 121.874 95.0095 124.075 91.261 125.501C87.5131 126.927 83.5058 127.546 79.5016 127.318L78.8636 127.303C75.3877 127.317 71.9569 126.522 68.8427 124.98C65.728 123.437 63.0163 121.192 60.9214 118.42C58.808 115.664 57.366 112.454 56.7083 109.044C56.0512 105.634 56.1971 102.119 57.1347 98.7753L73.689 38.9548C76.4017 29.2061 85.3683 22.4018 95.4895 22.4018H130.243C132.201 22.3954 134.133 22.8452 135.887 23.7154C137.642 24.5856 139.168 25.8524 140.347 27.4151C141.539 28.9695 142.351 30.7804 142.719 32.7037C143.087 34.6271 143.001 36.6097 142.467 38.4939L138.961 51.086C136.243 60.8327 127.282 67.6389 117.163 67.6389H78.9013L72.7015 90.0387H117.163C137.31 90.0387 155.149 76.491 160.557 57.097L164.064 44.5048C167.039 33.8469 164.895 22.6733 158.205 13.8675C151.504 5.05325 141.313 0 130.243 0H95.4895C75.3426 0 57.5012 13.5476 52.0871 32.9587L35.5306 92.8023C31.7527 106.444 34.5113 120.725 43.0802 131.982C51.5964 143.164 64.5055 149.61 78.5369 149.703C85.6436 150.063 92.7471 148.929 99.3892 146.377C106.031 143.826 112.064 139.911 117.1 134.887L117.53 134.451C120.166 131.804 123.301 129.706 126.754 128.278C130.207 126.849 133.908 126.118 137.645 126.127C141.383 126.118 145.085 126.849 148.538 128.279C151.991 129.71 155.126 131.81 157.76 134.459L158.904 135.604C166.416 143.11 176.372 148.506 187.264 150L198.491 131.936C186.468 130.199 179.729 124.725 174.759 119.758Z" fill="black"/>
<path d="M6.3786 67.6348L0.176758 90.0431H22.9961L29.1979 67.6348H6.3786Z" fill="black"/>
<path d="M291.423 56.1436L289.414 63.1353C289.178 63.9537 288.683 64.673 288.003 65.1855C287.323 65.698 286.494 65.9758 285.642 65.9768H285.633L257.137 65.9238L259.497 57.2488C259.903 55.7689 260.784 54.4634 262.004 53.5321C263.224 52.6012 264.716 52.0961 266.251 52.0944H288.369C288.862 52.0891 289.35 52.2007 289.791 52.4203C290.233 52.6398 290.616 52.9609 290.909 53.3572C291.207 53.7489 291.409 54.2053 291.499 54.6892C291.588 55.1731 291.562 55.6714 291.423 56.1436ZM288.369 38.7804H266.251C261.794 38.7877 257.464 40.2564 253.922 42.9611C250.382 45.6657 247.827 49.457 246.65 53.7526L239.302 80.6859C238.467 83.697 238.346 86.8608 238.946 89.927C239.547 92.9933 240.854 95.8777 242.762 98.3525C244.65 100.844 247.092 102.862 249.895 104.247C252.698 105.632 255.785 106.346 258.912 106.333H275.561C284.583 106.333 292.614 100.282 295.085 91.6724L296.892 85.5288H283.01L282.292 87.9489C281.87 89.4081 280.985 90.6908 279.772 91.6051C278.558 92.5189 277.081 93.015 275.561 93.0192H258.912C257.834 93.024 256.769 92.7786 255.802 92.3016C254.836 91.8245 253.993 91.1291 253.342 90.2705C252.686 89.4171 252.236 88.4228 252.029 87.3664C251.822 86.3095 251.864 85.2198 252.15 84.182L253.506 79.2214L285.604 79.2844H285.642C293.293 79.2844 300.109 74.1617 302.22 66.8037L304.222 59.8099C304.938 57.3574 305.069 54.7714 304.604 52.2592C304.138 49.747 303.09 47.3789 301.543 45.3448C300.013 43.298 298.025 41.6381 295.737 40.4981C293.449 39.3581 290.926 38.7699 288.369 38.7804Z" fill="black"/>
<path d="M382.428 61.0164L382.21 61.7866L374.7 87.9555C374.276 89.4136 373.392 90.6958 372.179 91.6095C370.965 92.5239 369.489 93.0205 367.97 93.0258H351.078C350.001 93.03 348.937 92.783 347.971 92.3044C347.006 91.8258 346.165 91.1288 345.517 90.2686C344.858 89.4184 344.406 88.4256 344.199 87.3698C343.993 86.314 344.035 85.2247 344.325 84.1885L351.664 57.2468C352.071 55.768 352.952 54.4636 354.172 53.5329C355.391 52.6018 356.883 52.0959 358.417 52.0926H375.698C377.918 52.0926 379.952 53.1051 381.291 54.8813C382.625 56.6489 383.037 58.882 382.428 61.0164ZM395.119 18.1699L387.687 42.6806C384.21 40.1332 380.009 38.7657 375.698 38.7786H358.417C353.961 38.7869 349.63 40.256 346.09 42.9605C342.549 45.665 339.994 49.4556 338.816 53.7512L331.47 80.6839C330.637 83.6951 330.516 86.8588 331.116 89.9246C331.716 92.9908 333.021 95.8753 334.928 98.3505C336.816 100.842 339.258 102.86 342.062 104.245C344.864 105.63 347.952 106.345 351.078 106.331H367.97C376.983 106.331 385.015 100.283 387.5 91.6239L395.228 64.6912C395.237 64.6827 395.237 64.6763 395.237 64.6763L408.98 18.1699H395.119Z" fill="black"/>
<path d="M528.859 46.8658C526.974 44.3441 524.525 42.2987 521.707 40.8938C518.889 39.4889 515.78 38.7634 512.631 38.7755H495.038C490.588 38.7851 486.263 40.25 482.724 42.9467C479.184 45.6433 476.625 49.4235 475.437 53.7102L460.534 106.095H474.386L488.262 57.3218L488.285 57.2524C488.689 55.7704 489.568 54.4623 490.788 53.5294C492.008 52.5966 493.502 52.0906 495.038 52.0895H512.631C514.851 52.0895 516.885 53.1102 518.224 54.8784C519.557 56.6461 519.97 58.8876 519.347 61.0681L506.804 106.095H520.631L532.164 64.6877C533.044 61.666 533.203 58.4794 532.631 55.3846C532.058 52.2896 530.764 49.3721 528.859 46.8658Z" fill="black"/>
<path d="M455.52 38.7803L428.579 81.5951L424.809 38.7803H411.393L416.255 97.3001C416.424 99.7383 415.851 102.171 414.611 104.277L407.029 117.109H422.501L471.421 38.7803H455.52Z" fill="black"/>
<path d="M327.208 25.8327C324.253 21.8813 319.947 19.1545 315.11 18.1719L311.612 31.0965C312.586 31.1775 313.532 31.4644 314.388 31.9383C315.243 32.4121 315.988 33.0621 316.573 33.8451C317.906 35.613 318.319 37.8545 317.711 39.9886L314.236 52.0881H328.088L330.512 43.6549C331.393 40.6327 331.552 37.4465 330.978 34.3515C330.404 31.2566 329.113 28.3391 327.208 25.8327Z" fill="black"/>
</g>
<defs>
<clipPath id="clip0_531_1928">
<rect width="533" height="150" fill="white" transform="translate(0.176758)"/>
</clipPath>
</defs>
</svg>
