<svg width="151" height="150" viewBox="0 0 151 150" fill="none" xmlns="http://www.w3.org/2000/svg">
<g clip-path="url(#clip0_531_1971)">
<path d="M0.176758 150H150.172V0.00508118H0.176758V150Z" fill="#80BD00"/>
<path d="M49.4492 59.1432H53.4676V90.7969H49.4492V59.1432Z" fill="white"/>
<mask id="mask0_531_1971" style="mask-type:luminance" maskUnits="userSpaceOnUse" x="0" y="0" width="151" height="150">
<path d="M0.176758 0.00242615H150.174V150H0.176758V0.00242615Z" fill="white"/>
</mask>
<g mask="url(#mask0_531_1971)">
<path d="M85.5351 86.7652C79.0206 86.7652 73.7402 81.4826 73.7402 74.9708C73.7402 68.4574 79.0206 63.1759 85.5351 63.1759C92.0496 63.1759 97.3279 68.4574 97.3279 74.9708C97.3279 81.4826 92.0496 86.7652 85.5351 86.7652ZM85.5351 59.1443C76.794 59.1443 69.708 66.2297 69.708 74.9708C69.708 83.7125 76.794 90.7969 85.5351 90.7969C94.2763 90.7969 101.362 83.7125 101.362 74.9708C101.362 66.2297 94.2763 59.1443 85.5351 59.1443Z" fill="white"/>
<path d="M53.262 90.7871H72.7275L68.7276 86.7687H53.262V90.7871Z" fill="white"/>
<path d="M136.054 73.9018H136.038V73.9003H132.003V73.9013H131.153L124.483 73.9003L124.486 73.9013H116.571L120.571 77.9197H131.692C131.677 77.9774 131.662 78.0367 131.647 78.0944C131.6 78.2764 131.552 78.4595 131.497 78.6367C131.436 78.8241 131.363 79.0061 131.293 79.1913C131.185 79.4781 131.066 79.7638 130.935 80.0395C130.857 80.2083 130.78 80.3771 130.695 80.5412C130.613 80.6952 130.521 80.8444 130.435 80.992C130.342 81.1497 130.248 81.3069 130.151 81.4598C130.056 81.6043 129.958 81.7434 129.859 81.8794C129.752 82.0318 129.64 82.18 129.526 82.326C129.422 82.4551 129.318 82.5864 129.209 82.7128C129.084 82.8589 128.954 83.0012 128.82 83.1409C128.71 83.2558 128.605 83.3706 128.493 83.4806C128.337 83.6315 128.174 83.7738 128.01 83.9183C127.91 84.0072 127.813 84.0971 127.708 84.1828C127.438 84.4008 127.16 84.612 126.872 84.8057C126.833 84.83 126.795 84.8549 126.758 84.8797C126.499 85.048 126.233 85.2089 125.96 85.3634C125.857 85.4195 125.75 85.4697 125.644 85.5242C125.43 85.6343 125.213 85.7391 124.992 85.8359C124.871 85.8915 124.748 85.9391 124.625 85.9851C124.409 86.0719 124.191 86.1539 123.97 86.228C123.842 86.2688 123.713 86.3111 123.584 86.3476C123.355 86.4143 123.123 86.4725 122.888 86.5259C122.762 86.554 122.638 86.5852 122.511 86.6085C122.25 86.6609 121.984 86.7006 121.717 86.7297C121.615 86.7429 121.514 86.7609 121.408 86.7688C121.033 86.8053 120.653 86.8265 120.269 86.8265C113.754 86.8265 108.473 81.5466 108.473 75.0353C108.473 70.6443 110.878 66.8212 114.437 64.7903C114.507 64.7495 114.574 64.7019 114.647 64.6628C114.658 64.6575 114.673 64.6511 114.685 64.6442C115.678 64.1098 116.752 63.7108 117.89 63.4796C118.658 63.3224 119.455 63.2388 120.269 63.2388C120.27 63.2388 120.273 63.242 120.275 63.242C120.729 63.242 121.174 63.2732 121.615 63.3224C121.757 63.3388 121.897 63.3647 122.04 63.3864C122.338 63.4319 122.634 63.4864 122.926 63.5536C123.082 63.5896 123.238 63.6304 123.394 63.6716C123.671 63.7473 123.946 63.8357 124.217 63.9325C124.358 63.9833 124.501 64.0278 124.64 64.0849C125.003 64.2294 125.357 64.3902 125.701 64.5691C125.815 64.6278 125.923 64.695 126.034 64.7591C126.311 64.9152 126.582 65.0755 126.845 65.2528C126.993 65.3528 127.135 65.4613 127.277 65.5692C127.472 65.7121 127.663 65.8613 127.851 66.0174C127.994 66.1386 128.137 66.2619 128.274 66.391C128.89 66.9588 129.451 67.5848 129.932 68.2721C129.951 68.2986 129.968 68.3282 129.986 68.3563V68.3251L132.85 65.4613C132.378 64.8395 131.855 64.259 131.295 63.7129L131.309 63.6997C131.23 63.624 131.144 63.5568 131.062 63.4817C130.943 63.37 130.818 63.2631 130.694 63.1547C130.421 62.9155 130.143 62.6826 129.855 62.463C129.691 62.335 129.524 62.2154 129.354 62.0969C129.126 61.9349 128.893 61.7788 128.656 61.6296C128.428 61.4873 128.194 61.3476 127.961 61.2164C127.81 61.1327 127.662 61.0476 127.508 60.9687C127.172 60.7946 126.827 60.6322 126.478 60.4835C126.354 60.429 126.227 60.3798 126.1 60.329C125.746 60.1893 125.39 60.0564 125.023 59.9421C124.953 59.9189 124.884 59.8961 124.816 59.8765C124.411 59.7548 123.996 59.6532 123.58 59.5627C123.482 59.5416 123.384 59.5204 123.285 59.5008C122.852 59.4167 122.412 59.35 121.966 59.3024C121.877 59.2923 121.787 59.286 121.698 59.2791C121.227 59.2352 120.751 59.2071 120.269 59.2071C118.716 59.2071 117.219 59.4416 115.803 59.8569C115.723 59.8792 115.64 59.8961 115.561 59.9189C114.727 60.1781 113.929 60.521 113.159 60.9079C113.015 60.9803 112.865 61.0423 112.725 61.1179C112.653 61.1571 112.588 61.2031 112.518 61.2407C107.7 63.9558 104.441 69.1103 104.441 75.0353C104.441 83.7738 111.525 90.8613 120.269 90.8613C129.01 90.8613 136.096 83.7738 136.096 75.0353V75.0321C136.093 74.6511 136.078 74.2738 136.054 73.9018Z" fill="white"/>
<path d="M45.9087 74.9763V74.9795C45.9071 75.3584 45.8912 75.7341 45.8669 76.1082H41.8157L29.8287 76.1098L26.0981 72.3094H41.5611C41.532 72.1766 41.4945 72.0453 41.4606 71.9141C41.4125 71.7337 41.3659 71.5495 41.3109 71.3728C41.2495 71.1823 41.1765 71.0002 41.1071 70.8187C40.9987 70.5298 40.8785 70.2473 40.7489 69.9689C40.67 69.8001 40.5933 69.6308 40.5087 69.4667C40.4261 69.3128 40.3346 69.1667 40.2483 69.0154C40.1552 68.8582 40.062 68.7011 39.9642 68.5497C39.8694 68.4058 39.7715 68.2661 39.6726 68.1269C39.5641 67.9772 39.454 67.8279 39.3397 67.684C39.235 67.5512 39.1307 67.4231 39.0228 67.2967C38.8968 67.1506 38.7656 67.0083 38.6333 66.867C38.5233 66.7538 38.418 66.6389 38.3052 66.5294C38.1497 66.3781 37.9867 66.2341 37.8227 66.0913C37.7232 66.0029 37.6258 65.9124 37.521 65.8272C37.2517 65.6071 36.9734 65.3975 36.685 65.2023C36.6469 65.1758 36.6077 65.1546 36.5712 65.1319C36.3114 64.9594 36.0468 64.7975 35.7732 64.6467C35.6695 64.589 35.5626 64.5398 35.4568 64.4853C35.243 64.3757 35.0261 64.2694 34.8038 64.1709C34.6847 64.118 34.5609 64.0704 34.4382 64.0212C34.2223 63.936 34.0037 63.8556 33.7841 63.782C33.6555 63.7391 33.527 63.7 33.3963 63.6624C33.1682 63.5947 32.9364 63.536 32.7009 63.4836C32.5755 63.4539 32.4506 63.4243 32.3237 63.4C32.0633 63.3502 31.7971 63.3126 31.5304 63.2783C31.4278 63.2671 31.3272 63.2486 31.2214 63.2375C30.8462 63.2015 30.4663 63.1798 30.0816 63.1798C23.5677 63.1798 18.2856 68.4613 18.2856 74.9763C18.2856 79.3673 20.6907 83.1889 24.2508 85.2192C24.3201 85.2589 24.3868 85.306 24.4593 85.3457C24.4715 85.352 24.4863 85.3589 24.4969 85.3637C25.4912 85.9003 26.5654 86.2971 27.7041 86.53C28.4714 86.6876 29.2672 86.7691 30.0816 86.7691H30.088C30.5404 86.7691 30.9875 86.7369 31.4278 86.6839C31.5707 86.6697 31.7098 86.6448 31.8532 86.6236C32.1506 86.5792 32.4469 86.5247 32.7396 86.4543C32.8951 86.4183 33.0518 86.3823 33.2068 86.34C33.4841 86.2606 33.7593 86.1722 34.0302 86.0759C34.1715 86.0246 34.3138 85.9786 34.4535 85.9246C34.817 85.7785 35.1705 85.6177 35.5145 85.4388C35.6277 85.3785 35.7362 85.3129 35.8484 85.252C36.1241 85.0949 36.395 84.934 36.658 84.7552C36.8061 84.6551 36.948 84.5488 37.0903 84.4435C37.2856 84.2974 37.4766 84.1498 37.6644 83.9926C37.8062 83.8715 37.9497 83.7461 38.0878 83.6185C38.7021 83.0492 39.2641 82.4258 39.7456 81.7384C39.7647 81.7114 39.7805 81.6813 39.8001 81.6532V81.6834L42.6639 84.5472C42.1914 85.1705 41.6686 85.7521 41.1087 86.2971L41.1225 86.3082C41.0436 86.386 40.9569 86.4511 40.8759 86.5268C40.7563 86.6395 40.6309 86.7448 40.5071 86.8543C40.2335 87.094 39.9567 87.3269 39.6678 87.5486C39.5038 87.6745 39.3376 87.7931 39.1667 87.9105C38.9386 88.0751 38.7063 88.2291 38.4693 88.3783C38.2417 88.5228 38.0079 88.6619 37.774 88.7932C37.6237 88.8773 37.475 88.9593 37.321 89.0408C36.985 89.2133 36.6405 89.3773 36.2913 89.5266C36.1674 89.5811 36.0399 89.6282 35.9135 89.6806C35.5594 89.8203 35.2033 89.9499 34.8366 90.0679C34.7668 90.0896 34.6974 90.1134 34.6292 90.1346C34.2239 90.2563 33.8095 90.3563 33.3936 90.4462C33.2957 90.4679 33.1973 90.4891 33.0978 90.5076C32.6655 90.5928 32.2247 90.6584 31.7786 90.7076C31.6902 90.7156 31.6003 90.7225 31.5114 90.732C31.0383 90.7743 30.5642 90.8008 30.0816 90.8008C28.5291 90.8008 27.0331 90.568 25.6166 90.1531C25.5361 90.1288 25.4541 90.1134 25.3742 90.0896C24.5408 89.8282 23.7418 89.4906 22.9719 89.1017C22.8285 89.0297 22.6782 88.9688 22.5385 88.89C22.4665 88.8545 22.4014 88.8048 22.3316 88.7656C17.5136 86.0542 14.2545 80.8987 14.2545 74.9763V74.9747C14.2545 66.2341 21.3389 59.1466 30.0816 59.1466C38.8228 59.1466 45.9087 66.2341 45.9087 74.9747V74.9763Z" fill="white"/>
</g>
</g>
<defs>
<clipPath id="clip0_531_1971">
<rect width="150" height="150" fill="white" transform="translate(0.176758)"/>
</clipPath>
</defs>
</svg>
