<!--?xml version="1.0" encoding="UTF-8"?-->
<svg preserveAspectRatio="xMidYMid meet" data-bbox="41.25 52.65 1417.45 162.8" viewBox="41.25 52.65 1417.45 162.8" xmlns="http://www.w3.org/2000/svg" data-type="color" role="img">
    <g>
        <path d="M345.8 127.4c-23.5-23.4-49.1-48.8-72.5-72.2-3.5-3.4-9.1-3.4-12.5 0-36.6 36.8-102 102.5-102 102.5S134 133 117.3 116.4c-3.5-3.4-9-3.4-12.4.1-3.4 3.5-3.5 9 0 12.4 16.7 16.6 31 31 47.7 47.6 3.5 3.4 9 3.4 12.5-.1 36.6-36.8 102.1-102.5 102.1-102.5l60.2 59.9-59.7 60-41.5-41.3c-3.5-3.4-9-3.4-12.5 0-3.4 3.5-3.4 9 0 12.5 0 0 33.2 33 47.6 47.3 3.5 3.4 9.1 3.5 12.5 0 23.2-23.3 49-49.2 72.1-72.5 3.4-3.4 3.4-9 0-12.4" fill="#005dab" data-color="1"></path>
        <path d="M117.8 53.7c-24.2 24.2-49.9 50.2-74 74.4-3.4 3.4-3.4 9 0 12.4 23.5 23.4 49.2 49 72.7 72.4 3.5 3.4 9 3.4 12.5 0 3.4-3.5 3.4-9 0-12.5l-66.4-66.1 59.9-60.2s23.1 23 41.3 41.2c3.5 3.4 9.1 3.4 12.5-.1 3.4-3.5 3.3-9-.2-12.5l.1.1c-18.3-18.2-29.3-29.2-47.6-47.4-3.5-3.4-9-3.5-12.5 0" fill="#005dab" data-color="1"></path>
        <path d="M892.7 99.2l-63.3.2-12.7 79.5h13.7l2.8-16.8c.2-1.4 1.3-3.1 2.5-4.2 1.2-1 3-1.7 4.5-1.8l40.8-.1c19.1 0 30.6-11.9 33.3-28 3.1-20.1-5.2-28.8-21.6-28.8zm6.2 28.5c-.9 5.4-6.7 13.2-15.7 13.2l-46.7.1c-.1-.1 4.4-26.7 4.5-26.8l47.8-.2c7.7.1 11.7 4.2 10.1 13.7z" fill="#005dab" data-color="1"></path>
        <path d="M751.8 179c-6.6 0-13.3.4-19.6-.6-20-3.2-28.7-20.9-22.4-44 5.9-21.4 18.3-33.8 37.8-35.6 12.6-1.2 25.2-1.2 37.3.1 19.8 2.1 28.7 18.4 23.9 41-5.2 24.3-21 38.7-42.8 39-4.7.1-9.4.1-14.2.1 0-.2 0 .1 0 0zm2.9-14.3c6-.4 12-.2 18.1-1.2 11.2-1.8 19.8-12 21.9-25.2 2.2-13.7-3.1-23.9-14.2-24.7-11.1-.8-22.5-.8-33.9 0-11.4.8-20.3 10.8-23 24.4-2.7 13.5 2.4 23.7 13.2 25.5 5.7 1 11.8.9 17.9 1.2z" fill-rule="evenodd" clip-rule="evenodd" fill="#005dab" data-color="1"></path>
        <path d="M1291.2 177.9c-6.6 0-13.3.4-19.6-.6-19.9-3.2-28.7-20.9-22.4-43.9 5.9-21.4 18.3-33.8 37.8-35.6 12.6-1.2 25.2-1.2 37.3.1 19.8 2.1 28.7 18.4 23.9 41-5.2 24.3-21 38.7-42.8 39-4.7.1-9.4 0-14.2 0 .1-.1 0 .2 0 0zm2.9-14.3c6-.3 12-.2 18.1-1.2 11.2-1.8 19.8-12 21.9-25.2 2.2-13.7-3.1-23.9-14.2-24.7-11.1-.8-22.5-.8-33.9 0-11.4.8-20.3 10.8-23 24.4-2.7 13.5 2.4 23.7 13.2 25.5 5.8 1.1 11.8.9 17.9 1.2z" fill-rule="evenodd" clip-rule="evenodd" fill="#005dab" data-color="1"></path>
        <path d="M1012.2 155.9c-1 6.2-4.1 11.5-9.2 15.9s-10.7 6.6-16.9 6.6l-44.6.1c-6.1 0-11.1-2.2-14.7-6.5-3.7-4.4-5-9.6-4-15.9l9.4-58h14l-8.8 53.5c-.6 3.3.2 6.2 2.2 8.6 2 2.4 4.7 3.6 8 3.6l37.4-.1c3.3 0 6.4-1.2 9.2-3.6 2.8-2.4 4.4-5.3 5-8.6L1008 98h13.7l-9.5 57.9z" fill="#005dab" data-color="1"></path>
        <path d="M1228.7 177.5h-13.5l13.1-79.8h13.5l-13.1 79.8z" fill="#005dab" data-color="1"></path>
        <path d="M1423.6 173.3c2.5 3.5 4.9 4 8.2 4l14.1-.1 12.8-80.1H1445l-10.3 64.6c-9.5-12.8-41.2-55.8-44.6-60.4-2.5-3.5-4.9-4-8.2-4l-14.1.1-12.8 80.1h13.7l10.4-64.6c9.5 12.8 41.1 55.7 44.5 60.4z" fill="#005dab" data-color="1"></path>
        <path d="M478.6 115.1c8.2 0 14.6-5.6 16.1-14.9l-69.4.2c-13.9 0-13.9 0-16.2 14.9l69.5-.2z" fill="#005dab" data-color="1"></path>
        <path d="M1086.2 178.2c8.2 0 14.6-5.6 16.1-14.9l-59.3.1c-1.4 0-2.6-.5-3.5-1.6-.9-1.1-1.2-2.4-.9-3.9l9.8-59.7h-14l-11 68.2c-1.4 8.3.9 11.9 9.1 11.9l53.7-.1z" fill="#005dab" data-color="1"></path>
        <path d="M1210.7 97.8c-1.4 8.7-7.5 14-15.2 14h-.4l-47.6.1c-6.6 0-10.4 3.5-11.3 9.3-1.3 7.7 1.4 9.3 8.3 9.3l43.3-.1c6.1 0 11 2.2 14.7 6.6 3.7 4.4 4.6 11.8 3.6 18-1 6.2-4.1 11.5-9.2 16-5.1 4.4-10.7 6.6-16.9 6.6l-67 .2c1.4-8 4.1-12.4 11.4-14l57.9-.1c6 0 9.4-6 9.9-9 .8-5-.2-10.2-6.8-10.1l-44.6.1c-13.5 0-20.7-10.2-18.5-23.6 2-12.4 13.7-22.9 26.1-22.9l62.3-.4z" fill="#005dab" data-color="1"></path>
        <path d="M472.9 179.7l-63 .2c-8.9 0-10.4-4.7-9.4-10.9l5.9-36.2 68.7-.2c-.6 8.3-7.6 14.9-16.1 14.9l-41.1.1L415 165l69.5-.2h-.1c-.7 8.3-7.6 14.9-16.1 14.9h4.6z" fill="#005dab" data-color="1"></path>
        <path d="M571.9 100l-63.3.2-12.7 79.5h13.7l2.8-16.8c.2-1.4 1.3-3.1 2.5-4.2 1.2-1 3-1.7 4.5-1.7l40.8-.1c19.1 0 30.6-11.9 33.3-28 3.1-20.2-5.3-28.9-21.6-28.9zm6.2 28.5c-.9 5.4-6.7 13.2-15.7 13.2l-46.7.1c-.1-.1 4.4-26.7 4.5-26.8l47.8-.2c7.7.1 11.6 4.2 10.1 13.7z" fill="#005dab" data-color="1"></path>
        <path d="M674.9 99.7l-63.3.2-12.7 79.5h13.8l2.8-16.8c.2-1.4 1.3-3.1 2.5-4.2 1.2-1 3-1.7 4.5-1.7l32-.1 17.2 22.7h12.5c1.8 0 2.8-2.1 1.7-3.5l-15.2-19.9h-.1c14.6-2.7 23.5-13.4 25.8-27.3 3.2-20.1-5.2-28.9-21.5-28.9zm6.2 28.5c-1.3 7.6-6.7 13.2-15.7 13.2l-46.7.1c-.1-.1 4.4-26.7 4.5-26.8l47.8-.2c7.7.1 11.7 4.3 10.1 13.7z" fill="#005dab" data-color="1"></path>
    </g>
</svg>