<svg width="622" height="150" viewBox="0 0 622 150" fill="none" xmlns="http://www.w3.org/2000/svg">
<g clip-path="url(#clip0_415_19352)">
<g filter="url(#filter0_d_415_19352)">
<path fill-rule="evenodd" clip-rule="evenodd" d="M3.2666 36.5479H618.156V108.814H3.2666V36.5479Z" fill="white"/>
<path fill-rule="evenodd" clip-rule="evenodd" d="M77.5327 0H212.137V144.175H77.5327V0Z" fill="#010303"/>
<path d="M245.34 108.51V37.1426H263.82C271.046 37.1426 276.096 37.5095 278.938 38.2433C281.785 38.9758 284.246 40.2044 286.317 41.9182C288.645 43.8659 290.45 46.361 291.706 49.3741C292.958 52.403 293.577 55.7305 293.577 59.3737C293.577 64.9013 292.353 69.3905 289.888 72.8518C287.426 76.3135 283.823 78.6086 279.105 79.7373L296.766 108.51H276.792L261.915 80.5703V108.51H245.34ZM261.915 70.8714H265.196C269.004 70.8714 271.789 70.1523 273.541 68.7286C275.297 67.2964 276.173 65.0488 276.173 62.0016C276.173 58.4254 275.354 55.8828 273.707 54.3641C272.074 52.8503 269.323 52.1031 265.453 52.1031H261.915V70.8714Z" fill="#010303"/>
<path d="M303.955 108.51V37.1426H321.811V108.51H303.955Z" fill="#010303"/>
<path d="M348.83 37.1406H366.463V83.4349C366.463 88.4774 366.162 92.3337 365.568 95.0468C364.982 97.7468 364.011 100.123 362.65 102.218C360.85 104.913 358.627 106.941 356.013 108.326C353.381 109.702 350.42 110.402 347.15 110.402C343.07 110.402 339.443 109.436 336.249 107.527C333.059 105.612 330.321 102.765 328.056 98.9941L338.862 88.2102C339.124 90.3189 339.743 91.9521 340.722 93.0859C341.694 94.2327 342.917 94.8 344.398 94.8C346.078 94.8 347.245 93.766 347.879 91.7199C348.511 89.6716 348.83 84.5636 348.83 76.3594V37.1406Z" fill="#010303"/>
<path d="M379.524 108.51V37.1426H419.264V52.7832H396.766V65.1634H417.984V80.4698H396.766V92.5208H419.264V108.51H379.524Z" fill="#010303"/>
<path d="M430.951 108.51V37.1426H448.45V69.5623L468.967 37.1426H489.565L465.596 71.9526L491.65 108.51H469.591L448.45 76.4809V108.51H430.951Z" fill="#010303"/>
<path d="M513.895 81.8365H531.48L524.872 58.2926C524.677 57.5783 524.386 56.4265 524.044 54.8358C523.682 53.2501 523.225 51.2073 522.664 48.689C522.288 50.4552 521.906 52.1165 521.531 53.7169C521.169 55.3161 520.793 56.8263 520.413 58.2926L513.895 81.8365ZM489.127 108.51L511.505 37.1426H533.66L556.067 108.51H538.483L535.202 95.7305H510.087L506.711 108.51H489.127Z" fill="#010303"/>
<path d="M89.3052 108.687V36.7393H107.309V108.687H89.3052ZM124.084 108.687V53.7511H110.36V36.7393H155.631V53.7511H141.907V108.687H124.084ZM171.94 108.687V53.7511H158.217V36.7393H203.487V53.7511H189.759V108.687H171.94Z" fill="white"/>
</g>
</g>
<defs>
<filter id="filter0_d_415_19352" x="-0.733398" y="0" width="622.89" height="152.175" filterUnits="userSpaceOnUse" color-interpolation-filters="sRGB">
<feFlood flood-opacity="0" result="BackgroundImageFix"/>
<feColorMatrix in="SourceAlpha" type="matrix" values="0 0 0 0 0 0 0 0 0 0 0 0 0 0 0 0 0 0 127 0" result="hardAlpha"/>
<feOffset dy="4"/>
<feGaussianBlur stdDeviation="2"/>
<feComposite in2="hardAlpha" operator="out"/>
<feColorMatrix type="matrix" values="0 0 0 0 0 0 0 0 0 0 0 0 0 0 0 0 0 0 0.25 0"/>
<feBlend mode="normal" in2="BackgroundImageFix" result="effect1_dropShadow_415_19352"/>
<feBlend mode="normal" in="SourceGraphic" in2="effect1_dropShadow_415_19352" result="shape"/>
</filter>
<clipPath id="clip0_415_19352">
<rect width="621" height="150" fill="white" transform="translate(0.354492)"/>
</clipPath>
</defs>
</svg>
