<svg width="398" height="150" viewBox="0 0 398 150" fill="none" xmlns="http://www.w3.org/2000/svg">
<path d="M135.144 118.764C135.088 118.832 135.029 118.898 134.97 118.963C135.026 118.895 135.085 118.832 135.144 118.764ZM89.5429 31.5541C80.704 32.0334 72.7427 33.7237 65.3075 36.715C65.3044 36.715 65.3013 36.7181 65.2981 36.7212C65.1114 36.7959 64.9527 36.9142 64.8064 37.045C64.7815 37.0636 64.7473 37.0761 64.7255 37.0979C64.5045 37.3158 64.3738 37.6052 64.2929 37.9165C64.2586 38.0535 64.212 38.1842 64.2089 38.3274C64.2089 38.3336 64.2057 38.3367 64.2057 38.343V40.0394C63.5615 38.9593 62.9919 37.8294 62.5749 36.6061V32.1797L62.6123 30.7167C62.7461 28.93 63.2503 27.134 64.1124 25.3691C65.2452 23.0656 66.8885 21.1886 68.4633 19.6042C75.6838 21.6555 81.0806 24.1706 85.3382 27.5013C87.0157 28.8086 88.4007 30.1689 89.5429 31.5541ZM63.9319 42.9654C63.4744 43.1833 63.0137 43.4043 62.5718 43.6315V40.9297C62.9919 41.6331 63.4432 42.3179 63.9319 42.9654ZM92.8481 34.947C92.8512 34.947 92.8512 34.9438 92.8543 34.9438L93.4861 34.9501C93.5733 35.9866 93.6168 37.1414 93.6168 38.5422C93.6168 38.5826 93.6137 38.6231 93.6137 38.6667C93.6137 38.6885 93.6013 38.7072 93.6013 38.7321C93.5982 38.7632 93.6137 38.7943 93.6137 38.8286C93.6137 39.2892 93.6106 39.753 93.6106 40.2231C93.6075 40.4845 93.6075 40.7522 93.6044 41.0168C92.6427 43.8152 90.8656 46.4143 87.9494 49.2998C80.6044 47.2703 75.0956 44.7552 70.6637 41.3935C69.8857 40.7989 69.1169 40.1359 68.2859 39.3484C75.6839 36.6123 83.6233 35.1555 92.5026 34.9438L92.8481 34.947C92.845 34.947 92.845 34.9439 92.8481 34.947ZM124.114 55.0864C118.829 56.3938 112.991 57.0817 106.268 57.1813C102.107 57.1004 98.9015 56.8762 95.8764 56.4622C93.9125 56.1883 91.9891 55.8148 90.1124 55.3915C92.54 52.9168 94.5256 49.9753 95.5745 46.4828C95.895 45.3933 96.0413 44.3443 96.1409 43.3202C96.7104 43.0308 97.1119 42.4518 97.1119 41.7701C97.1119 41.4059 97.115 41.0417 97.1182 40.6775C108.185 41.3561 117.532 43.8868 124.88 48.2571C127.23 49.6516 129.281 51.1924 130.974 52.8359L131.014 52.8795C128.586 53.7791 126.277 54.5479 124.114 55.0864ZM130.995 65.9872C129.492 66.5506 127.98 67.0487 126.504 67.4689L121.677 68.6767C119.281 69.1747 116.726 69.5638 114.086 69.8346C111.323 70.1085 108.581 70.1832 106.265 70.2143C100.283 70.1023 94.6719 69.4299 89.1289 68.1973V57.0568C91.2671 57.5548 93.4394 57.9782 95.618 58.277C98.7272 58.7096 102.004 58.94 106.25 59.0209H106.271C113.162 58.9089 119.138 58.2054 124.541 56.8638C126.8 56.3128 129.137 55.5751 131.752 54.5946V65.6915C131.5 65.7911 131.238 65.8939 130.995 65.9872ZM50.4339 69.0004C54.5359 68.9101 57.8691 68.6611 60.9254 68.2191C63.5335 67.8424 66.07 67.3413 68.4758 66.7218L73.1816 65.3305L73.2002 65.3242C74.7564 64.792 76.2472 64.2161 77.629 63.6122C80.7133 62.2582 84.1866 60.3843 87.2989 57.9159V68.4961C81.5318 73.2897 74.246 76.6733 65.6125 78.5409C60.5083 79.6522 55.205 80.2125 49.8519 80.2125H49.7647C49.5904 80.2125 49.4162 80.1969 49.2419 80.1938L49.245 69.0782C49.245 69.0502 49.245 69.0222 49.245 68.991L50.4339 69.0004ZM89.1289 50.713C90.8313 49.0384 92.7423 46.9248 94.1615 44.2727C94.0712 44.8299 93.9841 45.3933 93.8129 45.963C92.9228 48.9885 91.2017 51.569 89.1289 53.7542V50.713ZM67.7226 43.9241V41.3032C68.3015 41.823 68.8897 42.3491 69.5526 42.8502C74.1277 46.3209 79.7921 48.9232 87.302 51.0181V54.6911L83.8785 53.6981C82.4624 53.2281 81.037 52.6865 79.6396 52.0888C75.743 50.4329 71.1897 47.9364 67.6355 44.4128C67.6542 44.3506 67.6573 44.2821 67.6697 44.2136C67.6791 44.114 67.7226 44.0268 67.7226 43.9241ZM49.2232 66.2238C49.2232 65.0379 49.2574 63.6527 49.522 62.3765C50.2845 58.6256 52.3448 55.3074 55.815 52.232C58.4791 49.8663 61.94 47.7279 66.3439 45.6922C70.1035 49.4119 74.8529 52.0359 78.9144 53.7759C80.3087 54.3674 81.787 54.9277 83.3245 55.4413L86.3496 56.3253C83.0942 58.9524 79.5057 60.789 76.8976 61.9251C75.5282 62.5228 74.0904 63.0799 72.6338 63.5749L67.9841 64.9538C65.5689 65.5639 63.1071 66.0526 60.664 66.4044C57.6793 66.8308 54.4176 67.0736 50.4059 67.1732L49.2325 67.1639C49.2263 66.8526 49.2232 66.5351 49.2232 66.2238ZM136.906 82.9859C133.793 92.0596 123.573 97.0867 117.756 99.2749C116.284 99.8414 114.762 100.346 113.097 100.819L108.114 102.042C105.521 102.571 102.891 102.957 100.296 103.194C97.42 103.468 94.5754 103.514 92.1727 103.524C89.7732 103.458 86.9379 103.343 84.115 103.01C81.5567 102.718 78.9486 102.269 76.3686 101.678C74.6817 101.289 73.0477 100.847 71.4978 100.358C69.8888 99.8477 68.398 99.306 66.9477 98.7084C61.4078 96.433 51.7161 91.2907 49.0489 82.407C49.0116 82.2793 49.0053 82.1548 48.968 82.0272C49.2512 82.0303 49.5344 82.0552 49.8145 82.0552C55.2953 82.0552 60.7418 81.4794 65.9984 80.3401C74.9213 78.4009 82.4655 74.8897 88.4442 69.9311C94.2673 71.2353 100.097 71.9357 106.25 72.0415H106.271C108.64 72.0104 111.441 71.9388 114.267 71.6556C116.947 71.3847 119.561 70.9801 122.029 70.4634L126.962 69.2525L126.984 69.2463C128.608 68.7794 130.177 68.2595 131.649 67.7086C131.901 67.6121 132.162 67.5063 132.418 67.4035L133.361 68.5366C134.391 69.8875 135.213 71.2851 135.798 72.6983C136.815 75.1667 136.902 77.7347 136.902 80.365L136.906 82.9859ZM106.505 20.2081C113.106 20.2081 119.555 21.0672 125.68 22.7637C133.012 24.7994 138.969 27.8063 143.385 31.7035C145.981 33.9945 149.243 37.7391 150.043 42.5514C150.189 43.4448 150.257 44.5155 150.257 45.9163C150.257 46.4984 150.248 47.0991 150.236 47.6812C150.223 48.2726 150.214 48.8796 150.214 49.4773V49.6578C150.192 49.7232 150.186 49.7885 150.161 49.8539C147.643 56.8825 140.864 61.452 135.262 64.1538V52.2227L133.457 50.3582L133.435 50.327C131.524 48.4812 129.246 46.7661 126.666 45.2377C118.674 40.4876 108.97 37.8543 97.0995 37.1601C97.0715 35.803 97.0061 34.3991 96.7976 32.9486C96.7851 32.8677 96.7447 32.7992 96.7198 32.7214C96.6949 32.6342 96.6731 32.5439 96.6326 32.463C96.5735 32.3385 96.4957 32.2327 96.4086 32.1268C96.3588 32.0646 96.3183 32.0023 96.2623 31.9463C96.1533 31.8436 96.0257 31.7657 95.895 31.691C95.8359 31.6599 95.7892 31.6163 95.727 31.5883C95.562 31.5198 95.3815 31.4887 95.201 31.4731C95.1574 31.4669 95.1201 31.4482 95.0796 31.4482L93.8036 31.4389C92.3035 29.0981 90.2493 26.8881 87.495 24.7278C86.8352 24.2111 86.1505 23.7162 85.4471 23.2399C88.077 22.4244 90.9683 21.7458 94.2424 21.2104C98.2697 20.5443 102.397 20.2081 106.505 20.2081ZM5.92197 57.7105C5.90952 57.1128 5.89707 56.4934 5.89707 55.8895C5.89707 54.5821 5.96865 53.5207 6.10871 52.6491C6.55376 49.857 7.92317 47.0244 10.0769 44.4626C12.7317 41.2845 16.4975 38.5048 21.2655 36.2014C28.8782 32.5128 37.9007 30.5611 48.8497 30.2405C52.877 30.2654 56.1045 30.4553 59.0954 30.8257L59.0642 32.1486V45.191C59.0642 45.3124 59.1109 45.4182 59.1327 45.5334C57.0039 46.8221 55.121 48.1699 53.4964 49.608C49.4846 53.1441 46.9917 57.2031 46.086 61.673C45.753 63.3103 45.7094 64.8947 45.7094 66.2269C45.7094 66.7312 45.7157 67.2261 45.725 67.7148C45.7312 68.1817 45.7374 68.6393 45.7374 69.0844V80.088C43.7393 79.9853 41.7506 79.8265 39.7961 79.5681C34.4896 78.8678 29.5162 77.6445 25.0065 75.9262C19.2923 73.7598 9.2241 68.7918 6.01845 59.8987C5.98733 59.8178 5.9811 59.74 5.9562 59.659V59.5625C5.94998 58.9462 5.93442 58.3174 5.92197 57.7105ZM5.94064 80.5673C5.94376 80.1751 5.94998 79.7736 5.94998 79.3596V63.9733C10.1204 70.9614 18.0194 75.2165 24.3498 77.6351C28.984 79.4001 34.0944 80.6576 39.5502 81.3798C41.6759 81.6599 43.8234 81.8187 45.9677 81.9245C46.1638 82.2887 46.4719 82.5782 46.8641 82.7307V107.206C44.5517 107.094 42.1365 106.945 39.737 106.63C37.0977 106.272 34.499 105.774 32.0091 105.152C30.5152 104.781 28.9249 104.314 27.2816 103.767C25.7441 103.241 24.272 102.674 22.9057 102.08C18.8691 100.315 15.3024 98.1076 12.5947 95.7015C9.33615 92.788 7.23847 89.5601 6.3608 86.0987C6.00911 84.7166 5.93753 83.3283 5.93753 81.6692C5.93442 81.3113 5.93753 80.944 5.94064 80.5673ZM49.4379 108.498C49.413 108.414 49.3726 108.339 49.3352 108.261C49.2792 108.146 49.217 108.037 49.1392 107.938C49.0863 107.872 49.0302 107.813 48.968 107.754C48.884 107.673 48.7937 107.608 48.6972 107.545L48.6941 86.3135C52.4257 93.4199 60.0726 97.8462 66.2505 100.396C67.6946 100.996 69.229 101.553 70.9407 102.098C72.64 102.63 74.3269 103.091 75.9577 103.465C78.5503 104.059 81.2237 104.52 83.9003 104.828C86.7418 105.164 89.5429 105.283 92.1665 105.36H92.1758C94.8213 105.335 97.6566 105.279 100.467 105.018C103.2 104.763 105.898 104.364 108.497 103.832L113.563 102.587L113.588 102.581C115.263 102.098 116.831 101.575 118.394 100.987C124.793 98.5559 132.735 94.2821 136.902 87.2628L136.899 106.051L136.828 107.465C136.541 110.135 135.412 112.868 133.56 115.365C130.908 118.944 126.909 122.048 121.674 124.594C113.554 128.55 103.943 130.518 92.2941 130.608C89.7389 130.533 87.0032 130.421 84.3391 130.113C81.5785 129.786 79.0731 129.36 76.6736 128.802C75.0707 128.435 73.4461 127.993 71.8495 127.504C64.6352 125.257 55.1614 120.887 50.9848 112.834C50.2534 111.449 49.827 109.977 49.4784 108.594C49.4753 108.56 49.4504 108.532 49.4379 108.498ZM150.22 70.5474C150.226 70.9116 150.229 71.2727 150.229 71.6244C150.229 73.3053 150.152 74.7185 149.778 76.1628C148.455 81.414 144.363 85.3641 140.41 88.0971L140.407 82.491C140.407 82.1299 140.41 81.7689 140.41 81.414C140.413 81.0623 140.416 80.7105 140.416 80.3619C140.413 77.3674 140.304 74.4259 139.044 71.3505C138.334 69.6323 137.351 67.9514 136.118 66.3545L135.779 65.9468C141.188 63.385 146.884 59.5501 150.211 53.9814L150.208 69.3677C150.211 69.7723 150.214 70.1614 150.22 70.5474ZM145.71 29.0701C140.889 24.8181 134.466 21.5622 126.616 19.3864C120.202 17.6059 113.436 16.7032 106.505 16.7032C102.179 16.7032 97.862 17.0518 93.6729 17.7397C89.0262 18.5055 85.0549 19.542 81.5225 20.8774C77.8624 18.9412 73.6048 17.3475 68.4042 15.9374C68.2673 15.9001 68.1241 15.8845 67.9841 15.8814C67.9716 15.8814 67.9623 15.8721 67.9467 15.8721C67.9218 15.8721 67.9031 15.8876 67.8782 15.8876C67.6884 15.8939 67.5048 15.9281 67.3336 15.9935C67.2713 16.0153 67.2215 16.0526 67.1624 16.0837C67.0286 16.1522 66.9041 16.2269 66.792 16.3265C66.7734 16.3452 66.7485 16.3514 66.7267 16.367C64.7379 18.2938 62.4971 20.6844 60.9565 23.8158C60.3901 24.9737 59.9606 26.1566 59.6431 27.3519C56.4779 26.9534 53.0793 26.748 48.8528 26.7262L48.7999 26.7169L48.775 26.7231C37.3125 27.0655 27.8138 29.1324 19.7374 33.0389C14.5243 35.5539 10.3663 38.6387 7.38163 42.1997C4.79532 45.2968 3.19561 48.6212 2.6354 52.092C2.41442 53.4896 2.3833 54.8561 2.3833 55.8926C2.38641 56.5494 2.39575 57.1937 2.41131 57.8132C2.42376 58.4264 2.43621 59.0054 2.43621 59.5594V79.3627C2.43621 79.7425 2.4331 80.1222 2.42999 80.5051C2.42376 80.8942 2.42376 81.2802 2.42376 81.6755C2.42999 83.319 2.47667 85.0808 2.96219 86.9671C4.01725 91.1351 6.47596 94.9575 10.2698 98.3224C13.2763 100.999 17.0546 103.346 21.499 105.298C23.0146 105.964 24.5832 106.571 26.1643 107.1C27.7733 107.645 29.4571 108.14 31.1626 108.57C33.8298 109.229 36.5624 109.749 39.2826 110.114C41.7101 110.437 44.1128 110.593 46.419 110.705C46.7676 111.916 47.2127 113.186 47.8787 114.465C51.7255 121.755 59.4408 127.274 70.8131 130.86C72.4502 131.377 74.1619 131.84 75.9048 132.239C78.5098 132.833 81.2144 133.294 83.947 133.612C86.8383 133.945 89.6393 134.063 92.2381 134.135H92.2972C104.476 134.041 114.594 131.959 123.221 127.763C128.96 124.968 133.392 121.503 136.389 117.463C138.624 114.453 139.987 111.106 140.335 107.795L140.423 106.135L140.419 92.2744C147.354 88.013 151.67 82.8988 153.195 77.0375C153.696 75.0578 153.74 73.2088 153.74 71.6306C153.74 71.254 153.737 70.8774 153.734 70.5007C153.731 70.1272 153.728 69.7505 153.728 69.3739L153.731 49.4866C153.728 48.9294 153.737 48.3535 153.752 47.7435C153.765 47.1551 153.774 46.5482 153.774 45.9287C153.774 44.8517 153.743 43.4292 153.507 41.9849C152.514 36.1298 148.717 31.7315 145.71 29.0701Z" fill="#002D56"/>
<path d="M386.128 26.1875H299.043V95.7791H246.237L291.004 26.1875H189.27V105.108C189.27 109.992 193.229 113.951 198.115 113.951C202.998 113.951 206.957 109.992 206.957 105.108V43.8772H258.596L213.829 113.469H316.727V43.8772H346.926V105.45C346.926 110.337 350.885 114.294 355.768 114.294C360.651 114.294 364.61 110.337 364.61 105.45V43.8772H386.128C391.014 43.8772 394.97 39.9178 394.97 35.0339C394.97 30.1469 391.014 26.1875 386.128 26.1875Z" fill="#919195"/>
</svg>
