<svg width="993" height="150" viewBox="0 0 993 150" fill="none" xmlns="http://www.w3.org/2000/svg">
<g clip-path="url(#clip0_531_1913)">
<path d="M84.4968 40.2892L44.1968 80.5784L40.4768 76.8594L36.7568 73.1404L65.8968 44.0082L95.0368 14.876L89.0848 9.04951L83.2568 3.09909L66.1448 20.2065L48.9088 37.4379L40.6008 27.3966C35.0208 20.7024 31.6728 17.6032 30.5568 18.2231C28.4488 19.5867 20.0168 27.0247 20.0168 27.7685C20.0168 28.0165 23.8608 32.9751 28.6968 38.6776L37.2528 48.9669L31.5488 54.7933L25.9688 60.4958L18.9008 53.1817L11.9568 45.8677L6.12878 51.3222L0.300781 56.6528L16.4208 74.5041L32.4168 92.3553L19.7688 105L6.99678 117.769L15.0568 125.826L23.1168 133.884L35.5168 121.612L47.9168 109.215L62.7968 125.826L77.5528 142.438L82.6368 137.975C85.3648 135.496 88.0928 133.14 88.7128 132.521C89.3328 131.901 83.1328 124.091 74.5768 114.669L59.3248 97.6859L64.2848 92.7272L69.2448 87.7685L96.8968 118.884L124.425 149.876L132.981 142.314L141.537 134.628L138.685 131.529C137.073 129.669 124.425 115.537 110.537 99.9173L85.3648 71.6528L113.141 43.8842L140.917 16.1156L132.857 8.05777L124.797 -7.62939e-05L84.4968 40.2892Z" fill="black"/>
<path d="M186.177 74.3803V128.926H196.717H207.257V119.256V109.711L235.777 81.1985C251.401 65.5787 264.297 52.3142 264.297 51.8183C264.297 51.1985 258.965 50.8266 252.393 50.8266H240.489L223.873 66.4464L207.257 82.0663V50.9506V19.8349H196.717H186.177V74.3803Z" fill="black"/>
<path d="M466.417 40.5369V61.2394L463.069 57.8923C455.257 50.4542 440.377 48.5947 427.481 53.4294C407.021 60.9914 396.605 86.7765 405.905 106.735C412.477 121.115 424.505 129.173 440.501 129.917C448.065 130.289 451.165 129.917 455.753 127.81L461.581 125.33L457.985 118.264L454.389 111.074L446.825 111.446C438.269 111.818 433.681 109.958 428.721 104.132C422.025 96.0741 422.025 84.917 428.721 76.8592C433.309 71.5286 438.021 69.4212 445.709 69.4212C453.397 69.4212 459.101 72.5203 463.565 79.2146C466.293 83.1815 466.417 84.5451 466.417 106.115V128.925H476.957H487.497V74.3798V19.8344H476.957H466.417V40.5369Z" fill="black"/>
<path d="M734.257 74.3805V128.926H744.177H754.097V123.843V118.761L758.933 123.1C765.381 128.926 771.085 130.538 781.873 129.918C803.201 128.43 818.577 112.066 818.577 90.4962C818.577 68.802 803.201 52.5624 781.625 51.0748C772.945 50.4549 762.777 52.8103 760.917 55.7855C760.545 56.4053 761.909 60.0004 764.017 63.5954C767.737 70.2896 767.861 70.4136 772.077 69.4219C780.261 67.5624 788.693 71.0334 794.273 78.5954C796.381 81.1987 796.877 83.802 796.877 90.4962C796.877 99.9177 794.893 103.761 787.577 108.843C782.741 112.066 772.077 112.562 766.621 109.711C761.785 107.232 756.949 101.157 755.337 95.7029C754.593 93.0995 754.097 76.1161 754.097 55.4136V19.8351H744.177H734.257V74.3805Z" fill="black"/>
<path d="M286.741 50.8268C274.837 53.3061 261.941 64.835 257.601 76.7359C254.253 86.2813 255.245 100.166 259.957 108.843C267.025 121.984 278.185 129.05 292.941 129.918C306.705 130.661 313.649 128.058 323.321 118.513C332.249 109.587 335.597 101.653 335.473 89.2565C335.349 64.835 311.169 45.7441 286.741 50.8268ZM302.737 70.0416C308.813 73.1408 313.029 79.959 313.649 87.397C314.393 96.1987 312.285 101.777 306.333 107.108C302.117 110.951 300.629 111.571 295.421 111.571C288.229 111.571 283.021 107.976 279.177 100.29C273.597 89.5045 278.185 74.5045 288.477 69.9177C293.437 67.6863 298.397 67.8102 302.737 70.0416Z" fill="black"/>
<path d="M381.477 50.7026C376.269 52.0663 372.177 54.2977 368.209 58.0167L364.737 61.2398V56.0332V50.8266H354.197H343.657V89.8762V128.926H354.073H364.613L364.985 105.62L365.357 82.1902L368.829 77.7274C374.781 69.9175 381.353 67.934 395.489 69.6696C397.721 69.9175 399.085 68.6778 402.681 62.2316L407.021 54.5456L402.681 52.6861C397.349 50.4547 386.437 49.339 381.477 50.7026Z" fill="black"/>
<path d="M603.065 50.8261C595.873 52.3137 586.077 57.8922 581.613 62.8509C579.629 65.2063 576.529 69.917 574.669 73.5121C571.941 78.8426 571.321 81.5699 571.321 89.8757C571.197 98.6773 571.693 100.785 575.289 108.223C580.125 118.016 588.061 125.082 597.981 128.305C606.041 131.033 620.425 130.413 626.005 127.066L629.849 124.834L626.005 117.768L622.161 110.702L616.209 111.322C608.397 112.066 604.925 111.074 599.593 106.363C591.533 99.2972 589.673 90.6195 594.013 80.9501C599.841 68.1815 616.581 64.7104 627.741 74.0079C634.561 79.7104 635.057 82.0658 635.057 106.611V128.925H645.597H656.137V89.8757V50.7021L645.969 51.074L635.677 51.4459L635.057 56.2806L634.437 60.9914L631.957 58.2641C626.625 52.1897 613.233 48.7187 603.065 50.8261Z" fill="black"/>
<path d="M704.621 50.8266C698.917 52.0663 689.741 57.5208 689.493 60.0002C689.369 60.744 688.873 59.1324 688.501 56.4051L687.757 51.4464L677.589 51.0745L667.297 50.7026V89.8762V128.926H677.713H688.253L688.625 105.124C688.997 82.4382 689.121 80.9506 691.849 77.3555C697.429 69.9175 706.977 67.0663 717.517 69.7935C721.113 70.6613 721.361 70.4134 725.329 63.3473C727.437 59.2564 729.297 55.4134 729.297 54.6696C729.297 51.6944 713.053 49.0911 704.621 50.8266Z" fill="black"/>
<path d="M858.753 50.8259C845.485 53.5532 834.697 62.1069 829.117 74.6276C826.141 81.3218 825.769 83.3052 826.265 92.2309C826.885 103.884 830.729 112.561 838.541 119.628C847.469 127.685 852.553 129.545 865.697 129.545C875.989 129.545 878.221 129.173 883.677 126.198C908.353 113.305 913.437 81.1978 894.093 61.859C885.165 52.9333 870.657 48.3466 858.753 50.8259ZM874.377 70.9086C881.073 75.4953 883.429 79.7102 884.049 87.892C885.041 101.776 877.229 111.57 865.325 111.57C855.033 111.57 847.097 101.9 847.097 89.6276C847.221 73.7598 862.845 63.0986 874.377 70.9086Z" fill="black"/>
<path d="M949.769 51.1985C946.669 52.1902 942.577 53.8018 940.841 54.9175L937.617 57.1489L941.337 63.5952C943.941 68.058 945.801 69.9175 947.289 69.6696C948.405 69.5456 951.381 69.0497 953.737 68.6778C956.465 68.182 959.937 68.6778 962.789 69.9175C970.229 73.0167 971.097 76.4878 971.097 104.752V128.926H981.761H992.425L991.929 101.405C991.433 75.744 991.185 73.2646 988.581 67.1902C985.109 59.6283 979.157 53.9258 972.709 52.1902C964.277 49.9588 955.721 49.5869 949.769 51.1985Z" fill="black"/>
<path d="M521.845 52.6857C509.197 57.3964 498.781 69.7931 496.177 83.4295C494.937 90.2477 495.061 92.6031 496.673 99.2973C500.269 113.058 509.817 123.967 522.341 128.306C525.193 129.297 531.517 130.165 536.353 130.165C549.621 130.165 560.285 124.463 569.089 112.686C570.453 110.95 569.461 109.958 562.517 105.372L554.333 100.041L550.737 104.38C546.025 110.082 541.065 112.066 533.253 111.322C522.961 110.33 516.017 101.901 516.017 90.4956C516.017 78.9667 523.209 69.9171 533.377 68.5535C539.825 67.6857 544.909 69.9171 549.993 75.8675L554.209 80.7022L562.393 75.6196C571.445 69.7931 571.445 70.5369 563.881 62.1072C561.773 59.8758 556.689 56.4047 552.597 54.4212C546.397 51.446 543.669 50.8262 535.857 50.9502C530.773 50.9502 524.449 51.8179 521.845 52.6857Z" fill="black"/>
<path d="M912.817 89.8762V128.926H923.357H933.897V89.8762V50.8266H923.357H912.817V89.8762Z" fill="black"/>
<path d="M224.989 102.769L222.261 112.19L230.569 120.62L239.001 129.05L251.649 128.678L264.297 128.306L245.945 110.827L227.593 93.2234L224.989 102.769Z" fill="black"/>
</g>
<defs>
<clipPath id="clip0_531_1913">
<rect width="992" height="150" fill="white" transform="translate(0.176758)"/>
</clipPath>
</defs>
</svg>
