<svg width="995" height="150" viewBox="0 0 995 150" fill="none" xmlns="http://www.w3.org/2000/svg">
<g clip-path="url(#clip0_531_1936)">
<path d="M615.876 78.8809C615.876 107.36 596.218 108.992 558.106 108.992L553.709 108.979H517.139V109.818C517.139 120.058 520.211 123.748 535.572 123.748H558.721C607.004 123.748 611.974 115.342 611.974 115.342C611.974 143.61 598.053 148.321 564.864 148.321H519.177C492.139 148.321 477.795 135.425 477.795 110.835V79.5418L477.79 78.8767V70.2676L477.795 69.9837L477.803 69.1914V69.1321L477.824 68.4118L477.85 67.7213L477.854 67.645L477.892 66.9417L477.896 66.8909L477.951 66.1494L478.006 65.4715L478.019 65.3571L478.087 64.7089L478.172 64.0056L478.193 63.8489L478.269 63.3193L478.286 63.2176L478.375 62.6414L478.489 61.9804L478.498 61.9296L478.616 61.3322L478.625 61.2771L478.744 60.7391L478.752 60.6925L478.888 60.1078L478.9 60.0697L479.061 59.4553L479.218 58.8961L479.243 58.8113C479.472 58.0318 479.726 57.2903 480.002 56.5743L480.218 56.0363L480.438 55.5363L480.455 55.4982C480.612 55.1508 480.769 54.8161 480.938 54.4814L481.196 53.9857C481.374 53.6594 481.552 53.3374 481.743 53.0282L482.027 52.5664C482.222 52.2655 482.421 51.969 482.624 51.6809L482.628 51.6724L482.942 51.2402L483.238 50.8547L483.277 50.8081L483.586 50.4268L483.599 50.4098L483.921 50.0285L483.942 50.0073L484.293 49.6176L484.569 49.3295L484.653 49.2363L484.95 48.9397L485.022 48.8677L485.399 48.5075C485.641 48.283 485.886 48.0669 486.136 47.8551L486.183 47.8169L486.59 47.4822L486.628 47.4526L487.005 47.1645L487.39 46.8764L487.428 46.8467L487.835 46.5586L487.856 46.5459L488.297 46.2493H488.305L488.725 45.9824L488.75 45.9655L489.123 45.7409L489.208 45.6858L489.674 45.4189L489.788 45.3554L490.148 45.1605L490.241 45.1096L490.635 44.9063L491.127 44.6606L491.173 44.6351L491.627 44.4275L492.101 44.2157L492.135 44.1987L492.627 43.9869L492.652 43.9784L493.173 43.7666L493.376 43.6861L493.707 43.5632L494.143 43.4065L494.245 43.3683L494.796 43.1819L494.931 43.1353L495.351 43.004L495.732 42.8853L495.914 42.8303L496.486 42.665L496.545 42.6481L497.066 42.5083L497.376 42.4278L497.452 42.4066L498.155 42.2329L498.223 42.2159L498.249 42.2075C503.667 40.9364 510.022 40.5085 517.131 40.5678H546.888L546.875 40.589L549.693 40.5678H576.523C600.51 40.3687 615.867 45.6986 615.867 70.2718V78.8809H615.876ZM480.459 55.494C480.616 55.1465 480.773 54.8118 480.942 54.4771L480.459 55.494ZM545.816 65.158C518.787 65.158 516.326 69.2507 516.326 76.2202C516.326 83.9947 518.567 86.863 540.288 86.863H557.691C574.294 86.863 577.768 83.177 577.768 74.5721C577.768 67.8102 572.447 65.158 557.077 65.158H545.816Z" fill="#2B2A29"/>
<path d="M218.413 65.158C191.384 65.158 188.923 69.2507 188.923 76.2202C188.923 83.9947 191.164 86.863 212.884 86.863H230.288C246.891 86.863 250.365 83.177 250.365 74.5721C250.365 67.8102 245.044 65.158 229.674 65.158H218.413ZM153.056 55.494C153.209 55.1465 153.37 54.8118 153.535 54.4771L153.056 55.494ZM288.473 78.8809C288.473 107.36 268.815 108.992 230.703 108.992L226.306 108.979H189.736V109.818C189.736 120.058 192.808 123.748 208.169 123.748H231.318C279.606 123.748 284.571 115.342 284.571 115.342C284.571 143.61 270.645 148.321 237.461 148.321H191.774C164.736 148.321 150.391 135.425 150.391 110.835V79.5418L150.387 78.8767V70.2676L150.391 69.9837L150.4 69.1914V69.1321L150.421 68.4118L150.451 67.7213V67.645L150.489 66.9417L150.497 66.8909L150.548 66.1494L150.608 65.4715L150.616 65.3571L150.684 64.7089L150.768 64.0056L150.79 63.8489L150.866 63.3193L150.883 63.2176L150.972 62.6414L151.086 61.9804L151.095 61.9296L151.213 61.3322L151.226 61.2771L151.345 60.7391L151.353 60.6925L151.493 60.1078L151.501 60.0697L151.662 59.4553L151.819 58.8961L151.845 58.8113C152.069 58.0318 152.328 57.2903 152.603 56.5743L152.819 56.0363L153.035 55.5363L153.052 55.4982C153.205 55.1508 153.365 54.8161 153.531 54.4814L153.789 53.9857C153.963 53.6594 154.145 53.3374 154.336 53.0282L154.624 52.5664C154.814 52.2655 155.013 51.969 155.217 51.6809L155.221 51.6724L155.539 51.2402L155.835 50.8547L155.874 50.8081L156.183 50.4268L156.195 50.4098L156.517 50.0285L156.539 50.0073L156.89 49.6176L157.166 49.3295L157.25 49.2363L157.547 48.9397L157.619 48.8677L158 48.5075C158.242 48.283 158.487 48.0669 158.737 47.8551L158.784 47.8169L159.191 47.4822L159.229 47.4526L159.606 47.1645L159.996 46.8764L160.03 46.8467L160.436 46.5586L160.462 46.5459L160.902 46.2493H160.907L161.326 45.9824L161.351 45.9655L161.72 45.7409L161.809 45.6858L162.275 45.4189L162.385 45.3554L162.745 45.1605L162.838 45.1096L163.232 44.9063L163.724 44.6606L163.77 44.6351L164.224 44.4275L164.698 44.2157L164.732 44.1987L165.224 43.9869L165.249 43.9784L165.774 43.7666L165.978 43.6861L166.304 43.5632L166.744 43.4065L166.846 43.3683L167.393 43.1819L167.528 43.1353L167.948 43.004L168.329 42.8853L168.511 42.8303L169.083 42.665L169.142 42.6481L169.668 42.5083L169.977 42.4278L170.049 42.4066L170.752 42.2329L170.82 42.2159L170.845 42.2075C176.264 40.9364 182.619 40.5085 189.728 40.5678H219.481L219.468 40.589L222.285 40.5678H249.115C273.103 40.3687 288.46 45.6986 288.46 70.2718V78.8809H288.473Z" fill="#2B2A29"/>
<path d="M849.61 123.731H863.539C882.18 123.731 886.891 122.308 886.891 115.957C886.891 109.814 883.819 107.352 869.89 107.352H833.019C796.356 107.14 785.498 99.1625 785.498 70.4796C785.498 44.4531 806.393 40.5723 833.43 40.5723H860.879C912.293 40.5723 921.304 47.7409 921.715 72.3226C921.715 72.3226 914.534 65.1455 853.092 65.1455C830.355 65.1455 826.054 65.7598 826.054 72.9369C826.054 77.4448 829.126 79.0717 849.61 79.0717H876.855C923.969 79.0717 927.447 94.8579 927.447 113.495C927.447 141.149 916.382 148.317 871.529 148.317H834.248C797.992 148.317 784.676 139.92 784.676 114.11C784.676 114.11 790.637 123.727 849.605 123.727L849.61 123.731Z" fill="#2B2A29"/>
<path d="M673.853 148.322H634.512V0.000976562H673.853V148.322Z" fill="#2B2A29"/>
<path d="M772.581 148.322H725.5L675.564 87.7529L720.929 40.5469H768.586L720.649 87.5284L772.581 148.322Z" fill="#2B2A29"/>
<path d="M436.035 148.313C430.824 148.369 424.3 148.161 419.068 147.737C414.221 147.343 411.497 146.39 406.265 144.882C401.033 143.378 396.75 141.391 393.424 138.933C390.098 136.48 387.332 132.985 385.15 128.464C382.968 123.948 381.867 118.593 381.867 112.403V62.8198H364.607V41.4072H381.867V0.874023H421.207V41.4072H459.158V62.8198H421.207V106.454C421.207 114.377 422.635 119.741 425.486 122.516C431.866 128.723 463.251 126.608 466.724 122.503C464.174 141.988 455.091 148.123 436.056 148.318H436.031L436.035 148.313Z" fill="#2B2A29"/>
<path d="M345.979 148.322H306.635V0.000976562H345.979V148.322Z" fill="#2B2A29"/>
<path d="M39.5172 148.321H0.176758V0H39.5172V148.321Z" fill="#2B2A29"/>
<path d="M138.245 148.321H91.1647L41.2288 87.7438L86.5935 40.5293H134.25L86.3139 87.5193L138.245 148.321Z" fill="#2B2A29"/>
<path d="M969.452 150C962.606 150 956.722 147.792 951.744 143.378C946.766 138.963 944.275 132.739 944.275 124.82C944.275 118.029 946.651 112.258 951.405 107.395C956.158 102.527 962.043 100.095 968.999 100.095C975.96 100.095 981.899 102.472 986.822 107.28C991.745 112.089 994.177 117.919 994.177 124.82C994.177 132.629 991.745 138.793 986.822 143.263C981.899 147.733 976.129 149.995 969.452 149.995V150Z" fill="#EF7F1A"/>
</g>
<defs>
<clipPath id="clip0_531_1936">
<rect width="994" height="150" fill="white" transform="translate(0.176758)"/>
</clipPath>
</defs>
</svg>
