<svg width="275" height="150" viewBox="0 0 275 150" fill="none" xmlns="http://www.w3.org/2000/svg">
<g clip-path="url(#clip0_415_20507)">
<g filter="url(#filter0_di_415_20507)">
<path d="M3.58252 82.2338V15.0764H13.4465V37.4622V38.5587H13.8118L14.2685 37.4622L21.9405 15.0764H32.0785L23.0365 37.1881L33.2658 82.2338H23.1278L16.5518 51.6246H16.2778L13.4465 58.4774V82.2338H3.58252ZM64.0452 82.2338L53.8158 15.0764H63.4058L68.3379 54.7312L68.7032 61.2186H69.2512L69.6165 54.7312L74.5485 15.0764H84.1382L73.9092 82.2338H64.0452ZM120.152 82.9647C117.412 82.9647 115.052 82.3252 113.073 81.046C111.125 79.7668 109.618 78.0307 108.552 75.8378C107.517 73.645 107 71.1779 107 68.4368V28.8734C107 26.1018 107.517 23.6348 108.552 21.4724C109.618 19.2795 111.125 17.5434 113.073 16.2642C115.052 14.985 117.412 14.3454 120.152 14.3454C122.892 14.3454 125.236 14.985 127.184 16.2642C129.163 17.5434 130.67 19.2795 131.705 21.4724C132.771 23.6652 133.304 26.1323 133.304 28.8734V68.4368C133.304 71.1779 132.771 73.645 131.705 75.8378C130.67 78.0307 129.163 79.7668 127.184 81.046C125.236 82.3252 122.892 82.9647 120.152 82.9647ZM120.152 73.3708C121.369 73.3708 122.222 72.8683 122.709 71.8632C123.196 70.8277 123.44 69.6856 123.44 68.4368V28.8734C123.44 27.6246 123.181 26.4977 122.663 25.4927C122.146 24.4571 121.309 23.9394 120.152 23.9394C119.025 23.9394 118.188 24.4571 117.64 25.4927C117.122 26.4977 116.864 27.6246 116.864 28.8734V68.4368C116.864 69.6856 117.122 70.8277 117.64 71.8632C118.158 72.8683 118.995 73.3708 120.152 73.3708ZM171.152 82.9647C168.351 82.9647 165.961 82.3404 163.983 81.0917C162.034 79.8125 160.542 78.0764 159.507 75.8835C158.503 73.6906 158 71.2084 158 68.4368V28.8734C158 26.1323 158.518 23.6652 159.553 21.4724C160.618 19.2795 162.141 17.5434 164.12 16.2642C166.098 14.985 168.443 14.3454 171.152 14.3454C173.192 14.3454 175.019 14.7262 176.632 15.4876C178.246 16.249 179.616 17.2998 180.742 18.6399C181.899 19.9495 182.782 21.4876 183.391 23.2541C184 24.9901 184.304 26.8632 184.304 28.8734V38.1018H175.08V28.8734C175.08 27.4724 174.79 26.2998 174.212 25.3556C173.633 24.4114 172.674 23.9394 171.335 23.9394C170.117 23.9394 169.234 24.4267 168.686 25.4013C168.138 26.3759 167.864 27.5333 167.864 28.8734V68.4368C167.864 69.7769 168.153 70.9343 168.732 71.9089C169.341 72.8835 170.208 73.3708 171.335 73.3708C172.705 73.3708 173.664 72.8988 174.212 71.9546C174.79 71.0104 175.08 69.8378 175.08 68.4368V59.2084H184.304V68.4368C184.304 71.1779 183.771 73.645 182.706 75.8378C181.64 78.0307 180.118 79.7668 178.139 81.046C176.191 82.3252 173.862 82.9647 171.152 82.9647ZM165.901 8.9089L159.599 0.685547H168.001L170.741 4.79723L173.573 0.685547H181.975L175.673 8.9089H165.901ZM209.457 82.2338V15.0764H219.321V82.2338H209.457ZM257.633 82.9647C254.833 82.9647 252.443 82.3404 250.464 81.0917C248.515 79.8125 247.024 78.0764 245.988 75.8835C244.984 73.6906 244.481 71.2084 244.481 68.4368V28.8734C244.481 26.1323 244.999 23.6652 246.034 21.4724C247.1 19.2795 248.622 17.5434 250.601 16.2642C252.58 14.985 254.924 14.3454 257.633 14.3454C259.673 14.3454 261.5 14.7262 263.113 15.4876C264.727 16.249 266.097 17.2998 267.223 18.6399C268.38 19.9495 269.263 21.4876 269.872 23.2541C270.481 24.9901 270.785 26.8632 270.785 28.8734V38.1018H261.561V28.8734C261.561 27.4724 261.272 26.2998 260.693 25.3556C260.115 24.4114 259.156 23.9394 257.816 23.9394C256.598 23.9394 255.715 24.4267 255.167 25.4013C254.619 26.3759 254.345 27.5333 254.345 28.8734V68.4368C254.345 69.7769 254.635 70.9343 255.213 71.9089C255.822 72.8835 256.69 73.3708 257.816 73.3708C259.186 73.3708 260.145 72.8988 260.693 71.9546C261.272 71.0104 261.561 69.8378 261.561 68.4368V59.2084H270.785V68.4368C270.785 71.1779 270.253 73.645 269.187 75.8378C268.122 78.0307 266.599 79.7668 264.62 81.046C262.672 82.3252 260.343 82.9647 257.633 82.9647ZM252.793 9.13733L258.912 0.913969H268.502L259.917 9.13733H252.793ZM72.3305 143.147V98.3759H79.0281C81.1394 98.3759 82.925 98.7208 84.3863 99.4114C85.8477 100.102 87.0251 101.279 87.9179 102.944C88.8114 104.61 89.4508 106.894 89.8359 109.797C90.2423 112.701 90.4448 116.366 90.4448 120.792C90.4448 125.239 90.2423 128.914 89.8359 131.818C89.4508 134.701 88.8114 136.975 87.9179 138.64C87.0251 140.285 85.8477 141.452 84.3863 142.142C82.925 142.812 81.1394 143.147 79.0281 143.147H72.3305ZM78.9063 136.569C80.5305 136.569 81.6768 135.929 82.3465 134.65C83.0163 133.371 83.4228 131.543 83.5643 129.168C83.7067 126.792 83.7774 123.97 83.7774 120.701C83.7774 117.391 83.7067 114.569 83.5643 112.234C83.4228 109.879 83.0064 108.082 82.3161 106.843C81.6463 105.584 80.51 104.955 78.9063 104.955V136.569ZM106.311 143.147V136.386H112.704V143.147H106.311ZM137.378 143.635C135.551 143.635 133.978 143.208 132.659 142.356C131.36 141.503 130.355 140.345 129.645 138.884C128.955 137.422 128.61 135.777 128.61 133.95V107.574C128.61 105.726 128.955 104.081 129.645 102.64C130.355 101.178 131.36 100.021 132.659 99.1678C133.978 98.315 135.551 97.8886 137.378 97.8886C139.205 97.8886 140.767 98.315 142.066 99.1678C143.385 100.021 144.39 101.178 145.08 102.64C145.79 104.102 146.146 105.746 146.146 107.574V133.95C146.146 135.777 145.79 137.422 145.08 138.884C144.39 140.345 143.385 141.503 142.066 142.356C140.767 143.208 139.205 143.635 137.378 143.635ZM137.378 137.239C138.19 137.239 138.758 136.904 139.083 136.234C139.408 135.543 139.57 134.782 139.57 133.95V107.574C139.57 106.742 139.397 105.99 139.052 105.32C138.708 104.629 138.149 104.285 137.378 104.285C136.627 104.285 136.069 104.629 135.703 105.32C135.359 105.99 135.186 106.742 135.186 107.574V133.95C135.186 134.782 135.359 135.543 135.703 136.234C136.048 136.904 136.607 137.239 137.378 137.239ZM162.062 143.147V136.386H168.456V143.147H162.062ZM193.129 143.635C191.303 143.635 189.729 143.208 188.41 142.356C187.111 141.503 186.107 140.345 185.396 138.884C184.706 137.422 184.361 135.777 184.361 133.95V107.574C184.361 105.726 184.706 104.081 185.396 102.64C186.107 101.178 187.111 100.021 188.41 99.1678C189.729 98.315 191.303 97.8886 193.129 97.8886C194.956 97.8886 196.519 98.315 197.818 99.1678C199.137 100.021 200.141 101.178 200.832 102.64C201.542 104.102 201.897 105.746 201.897 107.574V133.95C201.897 135.777 201.542 137.422 200.832 138.884C200.141 140.345 199.137 141.503 197.818 142.356C196.519 143.208 194.956 143.635 193.129 143.635ZM193.129 137.239C193.941 137.239 194.509 136.904 194.834 136.234C195.159 135.543 195.321 134.782 195.321 133.95V107.574C195.321 106.742 195.149 105.99 194.804 105.32C194.459 104.629 193.9 104.285 193.129 104.285C192.378 104.285 191.82 104.629 191.455 105.32C191.11 105.99 190.937 106.742 190.937 107.574V133.95C190.937 134.782 191.11 135.543 191.455 136.234C191.8 136.904 192.358 137.239 193.129 137.239Z" fill="black"/>
</g>
</g>
<defs>
<filter id="filter0_di_415_20507" x="-0.41748" y="0.685547" width="275.203" height="150.949" filterUnits="userSpaceOnUse" color-interpolation-filters="sRGB">
<feFlood flood-opacity="0" result="BackgroundImageFix"/>
<feColorMatrix in="SourceAlpha" type="matrix" values="0 0 0 0 0 0 0 0 0 0 0 0 0 0 0 0 0 0 127 0" result="hardAlpha"/>
<feOffset dy="4"/>
<feGaussianBlur stdDeviation="2"/>
<feComposite in2="hardAlpha" operator="out"/>
<feColorMatrix type="matrix" values="0 0 0 0 0 0 0 0 0 0 0 0 0 0 0 0 0 0 0.25 0"/>
<feBlend mode="normal" in2="BackgroundImageFix" result="effect1_dropShadow_415_20507"/>
<feBlend mode="normal" in="SourceGraphic" in2="effect1_dropShadow_415_20507" result="shape"/>
<feColorMatrix in="SourceAlpha" type="matrix" values="0 0 0 0 0 0 0 0 0 0 0 0 0 0 0 0 0 0 127 0" result="hardAlpha"/>
<feOffset dy="4"/>
<feGaussianBlur stdDeviation="2"/>
<feComposite in2="hardAlpha" operator="arithmetic" k2="-1" k3="1"/>
<feColorMatrix type="matrix" values="0 0 0 0 0 0 0 0 0 0 0 0 0 0 0 0 0 0 0.25 0"/>
<feBlend mode="normal" in2="shape" result="effect2_innerShadow_415_20507"/>
</filter>
<clipPath id="clip0_415_20507">
<rect width="274" height="150" fill="white" transform="translate(0.354492)"/>
</clipPath>
</defs>
</svg>
