<svg width="559" height="150" viewBox="0 0 559 150" fill="none" xmlns="http://www.w3.org/2000/svg">
<g clip-path="url(#clip0_531_1993)">
<path d="M79.3893 125.842C80.5613 126.08 81.7046 126.319 82.8463 126.521C81.8355 122.734 79.9897 116.935 79.9019 113.066C79.9382 112.078 79.3893 108.971 77.5888 108.47C75.889 108.119 73.7965 107.88 72.9708 109.651C73.1298 114.142 74.1838 117.248 71.1296 117.297C57.2079 113.448 29.6979 115.409 15.348 122.714C10.386 124.956 9.48854 124.648 8.28327 120.623C1.28271 75.756 30.8724 47.8806 72.5451 48.1962C73.0426 48.2784 73.7606 48.6196 74.1914 48.9378C78.6178 53.1919 73.2093 62.6137 71.8373 67.5556C71.6092 69.0002 71.5604 70.3831 71.8707 71.9047L77.5888 71.9458C77.6456 70.3678 77.8894 68.9873 78.1279 67.6043C78.879 63.7915 80.6279 58.9523 82.3822 55.5833C84.0229 52.435 85.8491 49.4843 87.6722 46.5361C88.3233 45.5483 88.7337 44.7606 89.1001 43.978C89.1463 42.7925 89.3879 41.4096 88.2643 40.8065C-20.5652 34.8512 0.846779 135.671 3.84703 135.692C16.0532 129.58 27.2619 123.445 41.0425 122.054C57.8593 120.854 65.5343 122.691 79.3893 125.842Z" fill="#0D0D0D"/>
<path d="M36.502 82.6608V89.3548L41.8818 89.4449C42.4358 89.4782 43.1999 90.2328 43.1948 91.2176L43.1871 92.701C43.2153 94.0866 42.2922 94.5025 41.887 94.5919L36.502 94.5995V102.018C36.502 103.159 37.402 104.096 38.5073 104.096H103.508C104.608 104.096 105.513 103.159 105.513 102.018V82.6608C105.513 81.5192 104.608 80.582 103.508 80.582H38.5073C37.402 80.582 36.502 81.5192 36.502 82.6608Z" fill="#0D0D0D"/>
<path d="M122.98 46.0086C124.572 30.262 128.34 17.0761 133.742 2.02481C134.107 1.46289 134.129 0.870173 133.999 0.24924C133.099 -1.82653 123.89 9.68901 122.518 11.6467C111.291 27.9425 96.2315 56.5183 84.2023 68.4367C84.1046 71.1052 85.3486 71.6517 86.2973 73.7865L88.3953 73.8045C89.9928 72.0443 94.8596 65.658 96.8008 62.9997C100.26 57.4899 103.829 52.0501 107.507 46.6834C108.312 45.5032 109.109 44.5205 110.102 43.5377C119.256 36.692 115.492 60.7495 115.543 64.8779C115.597 76.5167 117.182 91.4598 121.303 102.419C122.121 104.682 122.385 105.701 122.38 107.864C121.806 114.714 119.613 117.234 115.315 120.046C109.758 121.898 52.1072 136.062 50.4763 135.362C49.1403 135.352 48.012 134.508 48.6607 132.78C49.2711 131.798 49.8712 131.013 50.6635 130.227L50.7353 128.252C49.6275 127.254 48.5198 126.258 47.4042 125.46C46.7965 125.937 31.9722 143.277 26.7692 147.236C26.5743 147.432 26.3769 147.627 26.3614 148.024C26.314 148.685 26.3537 149.349 26.4794 150C45.5451 145.792 64.5108 139.505 83.6791 135.02C100.752 130.769 115.92 126.856 133.455 124.729C137.312 123.892 138.076 121.937 136.894 119.42C124.949 99.6424 121.441 67.8645 122.98 46.0086Z" fill="#0D0D0D"/>
<path d="M320.457 84.8638L316.101 94.7396L316.954 95.1812C317.508 94.7502 317.911 94.5396 318.165 94.5396C318.385 94.5396 319.037 94.788 320.134 95.3017C325.327 97.857 330.579 99.1373 335.902 99.1373C338.867 99.1373 341.644 98.7759 344.239 98.0524C347.721 97.085 350.286 95.607 351.937 93.5903C353.727 91.485 354.698 88.8055 354.673 86.0411C354.673 84.2608 354.28 82.5774 353.507 81.007C352.786 79.4926 351.695 78.1843 350.336 77.2024C348.958 76.2434 347.431 75.5158 345.819 75.0493C344.118 74.5362 341.898 74.1308 339.151 73.8409L334.52 73.3687C331.412 73.0557 329.391 72.7529 328.445 72.4809C326.622 71.9267 325.706 70.9029 325.706 69.3916C325.706 68.4653 326.068 67.6084 326.786 66.8258C327.555 66.0028 328.521 65.3915 329.594 65.0502C331.194 64.5396 333.023 64.2881 335.107 64.2881C339.825 64.2881 343.928 65.5043 347.429 67.9393C348.565 68.7065 349.142 69.4301 349.142 70.0946C349.142 70.2152 349.129 70.3692 349.108 70.5693L349.934 71.0415L354.732 61.5709L353.909 61.127C353.357 61.5812 352.883 61.8121 352.468 61.8121C352.206 61.8121 351.511 61.5812 350.375 61.127C347.049 59.7389 344.279 58.7715 342.059 58.2584C339.843 57.7349 337.441 57.4707 334.874 57.4707C328.737 57.4707 324.142 58.9332 321.083 61.8609C318.739 64.0855 317.573 66.8951 317.573 70.2974C317.573 72.3603 318.034 74.1924 318.957 75.7835C319.924 77.5047 321.391 78.8911 323.163 79.76C324.419 80.3941 325.678 80.8479 326.935 81.1381C328.194 81.4206 330.348 81.7229 333.397 82.0335L337.93 82.5085C340.982 82.8396 343.003 83.204 343.998 83.5964C345.439 84.1684 346.154 85.1176 346.154 86.4547C346.154 87.3396 345.849 88.1843 345.236 89.0002C344.6 89.8509 343.759 90.5259 342.79 90.9631C340.949 91.8502 338.721 92.2941 336.103 92.2941C333.707 92.2941 331.171 91.879 328.504 91.0555C325.83 90.229 323.858 89.2434 322.58 88.1047C321.735 87.36 321.311 86.5441 321.311 85.6593V85.2767L320.457 84.8638Z" fill="#0D0D0D"/>
<path d="M398.678 98.848C398.991 99.1299 399.242 99.6155 399.442 100.326H400.388V89.9109H399.442C399.242 90.6139 398.991 91.1064 398.678 91.3889C398.365 91.6609 397.911 91.8018 397.319 91.8018H371.442V80.7692H387.772C388.364 80.7692 388.818 80.9102 389.131 81.2026C389.441 81.4821 389.692 81.967 389.895 82.6602H390.842V72.4735H389.895C389.692 73.1791 389.441 73.6717 389.131 73.954C388.818 74.2234 388.364 74.3671 387.772 74.3671H371.442V64.8119H396.616C397.208 64.8119 397.663 64.953 397.973 65.225C398.286 65.5072 398.537 65.9819 398.737 66.6747H399.686V56.2676H398.737C398.537 56.9732 398.286 57.4633 397.973 57.7558C397.663 58.0406 397.208 58.1792 396.616 58.1792H360.767V59.126C361.485 59.3286 361.967 59.5776 362.247 59.8906C362.521 60.2011 362.662 60.6655 362.662 61.2787V95.3352C362.662 95.9488 362.521 96.4132 362.247 96.723C361.967 97.0367 361.485 97.2882 360.767 97.4905V98.4352H397.319C397.911 98.4352 398.365 98.5783 398.678 98.848Z" fill="#0D0D0D"/>
<path d="M239.813 68.3045L246.342 82.6504H233.185L239.813 68.3045ZM229.291 97.4883C227.963 97.155 227.309 96.552 227.309 95.6876C227.309 95.233 227.489 94.6201 227.871 93.8323L230.579 88.1671H248.868L251.632 93.8323C252.04 94.6406 252.227 95.2436 252.227 95.6565C252.227 96.6626 251.583 97.2754 250.286 97.4883V98.433H265.077V97.4883C264.251 97.327 263.594 97.0141 263.105 96.5315C262.609 96.0489 262.038 95.1535 261.394 93.8323L246.059 62.8085C245.688 62.0849 245.495 61.428 245.495 60.8661C245.495 60.0399 246.083 59.4575 247.239 59.1239V58.1797H232.971V59.1239C234.12 59.5165 234.682 60.1631 234.682 61.0689C234.682 61.6615 234.454 62.4467 233.979 63.4345L219.181 94.3558C218.658 95.505 218.185 96.2694 217.77 96.6626C217.36 97.055 216.752 97.327 215.973 97.4883V98.433H229.291V97.4883Z" fill="#0D0D0D"/>
<path d="M417.314 64.8134H430.876C432.915 64.8134 434.336 64.8673 435.131 64.9751C435.928 65.0854 436.68 65.3368 437.384 65.7294C438.885 66.5376 439.626 67.9848 439.626 70.0913C439.626 72.203 438.885 73.6502 437.384 74.4584C436.681 74.8401 435.913 75.0888 435.121 75.1923C434.297 75.3129 432.877 75.3744 430.876 75.3744H417.314V64.8134ZM419.206 97.4897C418.511 97.3071 418.029 97.0662 417.745 96.7329C417.455 96.4116 417.314 95.9601 417.314 95.3647V82.0071H428.04L436.187 93.8639C437.113 95.2162 437.575 96.0707 437.575 96.4321C437.575 96.976 437.074 97.3276 436.066 97.4897V98.4366H450.624V97.4897C449.762 97.4526 448.937 97.126 448.283 96.5632C447.65 96.001 446.629 94.7518 445.257 92.7988L437.441 81.6836C444.741 80.5677 448.383 76.7238 448.383 70.1504C448.383 68.226 448.016 66.4144 447.293 64.7236C446.561 63.029 445.35 61.5846 443.811 60.5669C442.475 59.6791 440.905 59.0685 439.105 58.7144C437.313 58.3603 434.879 58.1807 431.81 58.1807H406.638V59.1249C407.354 59.3276 407.838 59.5791 408.118 59.8921C408.393 60.2026 408.531 60.667 408.531 61.2802V95.3647C408.531 95.9601 408.393 96.4116 408.118 96.7245C407.838 97.0382 407.354 97.2866 406.638 97.4897V98.4366H419.206V97.4897Z" fill="#0D0D0D"/>
<path d="M512.965 97.4883C512.27 97.3065 511.783 97.0648 511.503 96.7315C511.211 96.411 511.072 95.9467 511.072 95.333V61.2484C511.072 60.6583 511.211 60.2016 511.488 59.8808C511.767 59.5498 512.26 59.3061 512.965 59.1239V58.1797H500.395V59.1239C501.115 59.3266 501.595 59.5781 501.877 59.8911C502.147 60.2016 502.287 60.6583 502.287 61.2484V95.333C502.287 95.9467 502.147 96.411 501.877 96.7217C501.595 97.0345 501.115 97.286 500.395 97.4883V98.433H512.965V97.4883Z" fill="#0D0D0D"/>
<path d="M453.626 63.099L467.565 93.2064C468.155 94.4874 468.445 95.3132 468.445 95.6852C468.445 96.7117 467.829 97.3041 466.598 97.4867V98.4337H480.451V97.4867C479.215 97.3041 478.586 96.7223 478.586 95.7162C478.586 95.3238 478.879 94.4874 479.474 93.2064L493.408 63.099C494.234 61.3183 494.816 60.2304 495.149 59.8583C495.485 59.4863 496.083 59.2426 496.95 59.122V58.1777H483.184V59.122C484.477 59.376 485.123 59.9302 485.123 60.7744C485.123 61.3286 484.902 62.1009 484.451 63.099L473.783 86.7488L463.111 63.099C462.66 62.1009 462.442 61.3286 462.442 60.7744C462.442 59.9302 463.083 59.376 464.383 59.122V58.1777H450.089V59.122C450.956 59.2426 451.553 59.4863 451.89 59.8583C452.22 60.2304 452.8 61.3183 453.626 63.099Z" fill="#0D0D0D"/>
<path d="M279.159 64.8134H292.724C294.763 64.8134 296.183 64.8673 296.978 64.9751C297.769 65.0843 298.534 65.3401 299.232 65.7294C300.728 66.5376 301.476 67.9848 301.476 70.0913C301.476 72.203 300.728 73.6502 299.232 74.4584C298.529 74.8398 297.761 75.0885 296.968 75.1923C296.145 75.3129 294.724 75.3744 292.724 75.3744H279.159V64.8134ZM281.054 97.4897C280.359 97.3071 279.874 97.0662 279.592 96.7329C279.299 96.4116 279.159 95.9601 279.159 95.3647V82.0071H289.886L298.032 93.8639C298.96 95.2162 299.422 96.0707 299.422 96.4321C299.422 96.976 298.92 97.3276 297.912 97.4897V98.4366H312.469V97.4897C311.546 97.4306 310.772 97.1177 310.128 96.5632C309.492 96.001 308.477 94.7518 307.11 92.7988L299.294 81.6836C306.587 80.5677 310.226 76.7238 310.226 70.1504C310.226 68.226 309.867 66.4144 309.141 64.7236C308.408 63.029 307.198 61.5846 305.659 60.5669C304.322 59.6791 302.751 59.0685 300.953 58.7144C299.16 58.3603 296.727 58.1807 293.658 58.1807H268.483V59.1249C269.202 59.3276 269.683 59.5791 269.966 59.8921C270.237 60.2026 270.378 60.667 270.378 61.2802V95.3647C270.378 95.9601 270.237 96.4116 269.966 96.7245C269.683 97.0382 269.202 97.2866 268.483 97.4897V98.4366H281.054V97.4897Z" fill="#0D0D0D"/>
<path d="M557.551 86.0411C557.551 84.2608 557.156 82.5774 556.384 81.007C555.665 79.4934 554.577 78.185 553.22 77.2024C551.912 76.2759 550.399 75.5599 548.696 75.0493C546.999 74.5362 544.781 74.1308 542.029 73.8409L537.398 73.3687C534.293 73.0557 532.269 72.7529 531.325 72.4809C529.5 71.9267 528.592 70.9029 528.592 69.3916C528.592 68.4653 528.949 67.6084 529.664 66.8258C530.374 66.0381 531.318 65.4453 532.469 65.0502C534.072 64.5396 535.905 64.2881 537.983 64.2881C542.701 64.2881 546.804 65.5043 550.309 67.9393C551.445 68.7065 552.017 69.4301 552.017 70.0946C552.017 70.2152 552.007 70.3692 551.986 70.5693L552.807 71.0415L557.61 61.5709L556.784 61.127C556.233 61.5812 555.764 61.8121 555.348 61.8121C555.087 61.8121 554.397 61.5812 553.258 61.127C549.927 59.7389 547.158 58.7716 544.935 58.2584C542.722 57.7349 540.316 57.4707 537.752 57.4707C531.618 57.4707 527.02 58.9332 523.959 61.8609C521.614 64.0855 520.448 66.8951 520.448 70.2974C520.448 72.3603 520.914 74.1924 521.835 75.7835C522.804 77.504 524.271 78.8903 526.043 79.76C527.3 80.3941 528.561 80.8479 529.815 81.1381C531.077 81.4206 533.226 81.7229 536.275 82.0335L540.814 82.5085C543.857 82.8396 545.886 83.204 546.878 83.5964C548.319 84.1706 549.032 85.1176 549.032 86.4547C549.032 87.3396 548.727 88.1843 548.115 89.0002C547.479 89.8524 546.636 90.5282 545.665 90.9631C543.827 91.8502 541.593 92.2941 538.98 92.2941C536.58 92.2941 534.052 91.879 531.382 91.0555C528.707 90.229 526.733 89.2434 525.456 88.1047C524.615 87.36 524.194 86.5441 524.194 85.6593V85.2767L523.332 84.8638L518.981 94.7396L519.837 95.1812C520.389 94.7502 520.788 94.5396 521.045 94.5396C521.261 94.5396 521.92 94.788 523.017 95.3017C528.208 97.857 533.457 99.1373 538.775 99.1373C541.749 99.1373 544.524 98.7759 547.119 98.0524C550.599 97.085 553.163 95.607 554.817 93.5903C556.606 91.4843 557.576 88.8047 557.551 86.0411Z" fill="#0D0D0D"/>
<path d="M196.928 59.1239C197.913 59.224 198.397 59.6782 198.397 60.4813C198.397 60.8944 198.153 61.5512 197.663 62.457L186.555 82.902L175.587 62.1029C175.318 61.5923 175.177 61.1381 175.177 60.7455C175.177 59.9014 175.639 59.3574 176.564 59.1239V58.1797H161.053V59.1239C161.763 59.3266 162.247 59.5781 162.527 59.8911C162.799 60.2016 162.94 60.6583 162.94 61.2484V95.333C162.94 95.9489 162.799 96.411 162.527 96.7217C162.247 97.0345 161.763 97.286 161.053 97.4883V98.433H172.882V97.4883C172.176 97.286 171.684 97.0345 171.403 96.7217C171.131 96.411 170.992 95.9489 170.992 95.333V70.6189L185.819 98.433L201.463 70.6189V95.333C201.463 95.9489 201.32 96.411 201.033 96.7315C200.748 97.0648 200.266 97.3065 199.571 97.4883V98.433H212.137V97.4883C211.434 97.286 210.939 97.0345 210.657 96.7217C210.388 96.411 210.247 95.9489 210.247 95.333V61.2484C210.247 60.6583 210.388 60.2016 210.657 59.8911C210.939 59.5781 211.434 59.3266 212.137 59.1239V58.1797H196.928V59.1239Z" fill="#0D0D0D"/>
</g>
<defs>
<clipPath id="clip0_531_1993">
<rect width="558" height="150" fill="white" transform="translate(0.176758)"/>
</clipPath>
</defs>
</svg>
