<svg width="474" height="150" viewBox="0 0 474 150" fill="none" xmlns="http://www.w3.org/2000/svg">
<g clip-path="url(#clip0_531_1897)">
<path d="M117.606 119.681C117.474 120.476 117.073 121.202 116.471 121.737C115.868 122.272 115.101 122.585 114.295 122.624C114.031 122.658 113.762 122.633 113.508 122.55C113.255 122.467 113.023 122.329 112.829 122.146C112.636 121.963 112.486 121.739 112.39 121.49C112.293 121.242 112.254 120.975 112.274 120.709C112.274 118.827 114.473 118.591 116.826 118.591H117.598L117.606 119.681ZM114.604 110.614C112.5 110.614 109.931 111.438 109.931 112.498C109.931 113.205 110.335 114.059 111.107 114.059C111.726 114.059 112.282 113.175 114.544 113.175C114.962 113.153 115.38 113.222 115.77 113.376C116.159 113.53 116.511 113.766 116.802 114.067C117.092 114.369 117.314 114.729 117.454 115.124C117.593 115.518 117.645 115.938 117.608 116.355V116.884H116.246C111.942 116.884 109.003 117.767 109.003 121.093C108.976 121.63 109.067 122.167 109.267 122.666C109.468 123.165 109.775 123.614 110.166 123.984C110.557 124.353 111.024 124.633 111.534 124.805C112.044 124.977 112.585 125.036 113.121 124.979C114.02 124.96 114.905 124.744 115.712 124.348C116.519 123.951 117.23 123.383 117.794 122.682V123.712C117.794 124.272 118.443 124.742 119.278 124.742C120.177 124.742 120.858 124.272 120.858 123.712V116.323C120.858 113.379 119.156 110.612 114.606 110.612M103.574 110.79C102.646 110.79 101.957 111.193 101.957 111.799V125.811C101.957 127.489 101.803 128.725 100.34 128.725C100.166 128.726 99.9943 128.762 99.8352 128.832C99.676 128.901 99.5327 129.002 99.414 129.129C99.2952 129.255 99.2035 129.405 99.1444 129.568C99.0853 129.731 99.06 129.905 99.0702 130.078C99.0702 130.726 99.4401 131.374 100.772 131.374C103.804 131.374 105.197 129.078 105.197 125.811V111.799C105.197 111.21 104.485 110.79 103.558 110.79M103.558 104.051C103.094 104.018 102.635 104.169 102.282 104.472C101.929 104.774 101.709 105.203 101.67 105.666C101.739 106.117 101.968 106.527 102.314 106.824C102.66 107.121 103.101 107.284 103.558 107.284C104.014 107.284 104.455 107.121 104.801 106.824C105.148 106.527 105.376 106.117 105.446 105.666C105.406 105.203 105.186 104.774 104.833 104.472C104.48 104.169 104.022 104.018 103.558 104.051ZM95.5611 104.051C95.0971 104.018 94.6389 104.169 94.2856 104.472C93.9324 104.774 93.7123 105.203 93.6731 105.666C93.7439 106.115 93.9729 106.524 94.3188 106.82C94.6648 107.115 95.1049 107.278 95.5601 107.278C96.0152 107.278 96.4554 107.115 96.8013 106.82C97.1472 106.524 97.3762 106.115 97.447 105.666C97.4078 105.203 97.1878 104.774 96.8345 104.472C96.4812 104.169 96.0231 104.018 95.559 104.051M95.559 110.79C94.6312 110.79 93.942 111.193 93.942 111.799V123.714C93.942 124.215 94.6252 124.744 95.559 124.744C96.4929 124.744 97.1984 124.215 97.1984 123.714V111.799C97.1984 111.21 96.4868 110.79 95.559 110.79ZM80.0451 116.412C80.0329 116.015 80.1007 115.619 80.2444 115.248C80.3881 114.877 80.6048 114.539 80.8817 114.254C81.1586 113.968 81.4901 113.741 81.8564 113.586C82.2227 113.431 82.6165 113.351 83.0145 113.35C83.8275 113.368 84.6033 113.694 85.1841 114.263C85.765 114.832 86.1073 115.6 86.1415 116.412V123.712C86.1415 124.389 87.0087 124.742 87.7586 124.742C88.5934 124.742 89.3979 124.389 89.3979 123.712V116.412C89.4377 114.934 88.8963 113.499 87.8897 112.414C86.8831 111.33 85.4914 110.683 84.013 110.612C83.1855 110.582 82.3651 110.774 81.6378 111.17C80.9105 111.565 80.3031 112.149 79.8793 112.86V111.799C79.8793 111.21 79.2284 110.79 78.4259 110.79C77.4678 110.79 76.8088 111.193 76.8088 111.799V123.714C76.8088 124.215 77.4597 124.744 78.4259 124.744C79.2911 124.744 80.0653 124.215 80.0653 123.714L80.0451 116.412ZM68.8972 119.679C68.765 120.474 68.364 121.2 67.7611 121.736C67.1583 122.271 66.3899 122.584 65.5842 122.622C65.3205 122.654 65.0529 122.628 64.8006 122.544C64.5484 122.461 64.3178 122.323 64.1254 122.14C63.9331 121.957 63.7838 121.733 63.6882 121.485C63.5927 121.238 63.5533 120.972 63.5729 120.707C63.5729 118.825 65.7701 118.589 68.123 118.589H68.8952L68.8972 119.679ZM65.8955 110.612C63.7913 110.612 61.2221 111.436 61.2221 112.496C61.2221 113.203 61.6263 114.057 62.3985 114.057C63.0191 114.057 63.5749 113.173 65.8348 113.173C66.2532 113.151 66.6712 113.22 67.0608 113.374C67.4503 113.528 67.8022 113.764 68.0927 114.065C68.3832 114.367 68.6055 114.727 68.7447 115.122C68.8838 115.516 68.9365 115.936 68.8992 116.353V116.882H67.549C63.2475 116.882 60.3064 117.765 60.3064 121.091C60.2797 121.628 60.3698 122.164 60.5704 122.663C60.771 123.162 61.0774 123.611 61.4685 123.981C61.8596 124.35 62.3261 124.63 62.8359 124.802C63.3458 124.974 63.8868 125.034 64.4219 124.977C65.3214 124.958 66.2059 124.743 67.0133 124.346C67.8207 123.949 68.5313 123.381 69.0953 122.68V123.71C69.0953 124.27 69.7442 124.74 70.581 124.74C71.4785 124.74 72.1597 124.27 72.1597 123.71V116.321C72.1597 113.377 70.4577 110.61 65.9096 110.61M53.6015 119.12C53.5616 119.941 53.2152 120.716 52.6306 121.294C52.046 121.872 51.2658 122.209 50.4442 122.24C49.7304 122.219 49.0421 121.971 48.4798 121.531C47.9175 121.092 47.5108 120.484 47.3191 119.797V116.412C47.3148 116.009 47.3911 115.609 47.5436 115.235C47.696 114.862 47.9216 114.523 48.207 114.237C48.4924 113.952 48.832 113.727 49.2057 113.575C49.5795 113.422 49.9799 113.346 50.3835 113.35C51.2078 113.36 51.9979 113.681 52.5949 114.249C53.1919 114.817 53.5515 115.59 53.6015 116.412V119.12ZM45.6171 110.79C44.752 110.79 44.0688 111.193 44.0688 111.799V130.342C44.0688 130.873 44.7176 131.372 45.6454 131.372C46.5732 131.372 47.3191 130.871 47.3191 130.342V122.69C47.7394 123.397 48.3378 123.981 49.0547 124.384C49.7716 124.787 50.5818 124.995 51.4043 124.987C52.8861 124.882 54.2727 124.219 55.284 123.132C56.2952 122.044 56.8556 120.614 56.8519 119.13V116.422C56.8811 114.915 56.3111 113.459 55.2667 112.371C54.2224 111.284 52.789 110.655 51.281 110.622C50.4556 110.608 49.6405 110.807 48.9141 111.199C48.1877 111.591 47.5744 112.163 47.1331 112.86V111.799C47.1331 111.21 46.4843 110.79 45.6171 110.79ZM33.0301 124.979C34.6375 125.026 36.2007 124.448 37.3898 123.367C38.5789 122.285 39.3009 120.784 39.4034 119.181V111.791C39.4034 111.26 38.7546 110.782 37.8268 110.782C36.9293 110.782 36.1874 111.252 36.1874 111.791V119.181C36.1582 119.998 35.8127 120.772 35.2238 121.339C34.6349 121.907 33.8484 122.224 33.0301 122.224C32.2117 122.224 31.4253 121.907 30.8364 121.339C30.2474 120.772 29.902 119.998 29.8727 119.181V111.822C29.8727 111.292 29.1288 110.792 28.2556 110.792C27.3581 110.792 26.6163 111.292 26.6163 111.822V119.181C26.7313 120.786 27.4617 122.284 28.6555 123.364C29.8492 124.444 31.4141 125.023 33.024 124.979M15.3007 122.182L21.955 113.146C22.2552 112.79 22.4293 112.345 22.4502 111.88C22.4581 111.733 22.4345 111.586 22.381 111.448C22.3275 111.311 22.2453 111.187 22.1399 111.083C22.0346 110.98 21.9084 110.901 21.7699 110.85C21.6313 110.799 21.4836 110.779 21.3365 110.79H12.3939C12.2432 110.805 12.0971 110.85 11.9639 110.922C11.8307 110.994 11.7132 111.091 11.6182 111.209C11.5232 111.327 11.4526 111.463 11.4106 111.608C11.3685 111.753 11.3558 111.905 11.3731 112.056C11.3441 112.361 11.4339 112.666 11.624 112.907C11.8141 113.148 12.0898 113.307 12.3939 113.35H18.2741L11.6501 122.388C11.3388 122.731 11.1443 123.163 11.0942 123.623C11.0879 123.774 11.1135 123.924 11.1691 124.065C11.2247 124.205 11.3092 124.332 11.417 124.437C11.5249 124.543 11.6537 124.624 11.7952 124.677C11.9367 124.729 12.0876 124.752 12.2383 124.742H21.8661C22.0184 124.729 22.1665 124.685 22.3019 124.614C22.4374 124.543 22.5574 124.446 22.6553 124.329C22.7531 124.211 22.8268 124.076 22.8721 123.93C22.9174 123.784 22.9334 123.63 22.9192 123.478C22.9357 123.324 22.9215 123.168 22.8774 123.019C22.8334 122.87 22.7603 122.732 22.6625 122.611C22.5646 122.491 22.4438 122.391 22.3072 122.317C22.1705 122.243 22.0206 122.197 21.8661 122.182H15.3007ZM13.8149 103.372C13.707 103.265 13.5627 103.202 13.4107 103.196C12.9781 103.196 12.6688 103.697 12.6688 104.168C12.6694 104.36 12.7177 104.55 12.8094 104.719C12.9011 104.889 13.0333 105.033 13.1944 105.139L16.3821 107.346C16.5428 107.48 16.7452 107.553 16.9541 107.553C17.1631 107.553 17.3654 107.48 17.5262 107.346L20.6836 105.139C20.8527 105.039 20.993 104.897 21.0904 104.727C21.1879 104.557 21.2393 104.364 21.2394 104.168C21.2394 103.697 20.9302 103.196 20.4976 103.196C20.3455 103.202 20.2012 103.265 20.0933 103.372L16.9359 105.581L13.8149 103.372Z" fill="#A3A9AD"/>
<path d="M54.7312 35.7733V31.1284C54.7312 29.4482 52.9625 28.2628 50.7815 28.2628C48.2891 28.2628 46.5225 29.4482 46.5225 31.1284V72.1383C46.5225 73.6206 48.2891 75.1029 50.7815 75.1029C53.1707 75.1029 55.1456 73.6226 55.1456 72.1383V49.6068C55.1456 40.614 61.6908 35.0806 68.3391 35.0806H71.8704C72.7891 35.0154 73.6474 34.5989 74.2667 33.9178C74.886 33.2366 75.2187 32.3432 75.1956 31.4233C75.2208 30.493 74.8914 29.5879 74.2741 28.8909C73.6569 28.194 72.7977 27.7573 71.8704 27.669H68.3391C65.5596 27.713 62.8403 28.4845 60.4525 29.9066C58.0647 31.3287 56.092 33.3515 54.7312 35.7733ZM119.538 35.0806C121.002 35.0939 122.448 35.4012 123.79 35.9842C125.133 36.5672 126.344 37.414 127.352 38.4742C128.36 39.5343 129.145 40.7863 129.659 42.1555C130.173 43.5247 130.406 44.9832 130.345 46.4443V72.2373C130.345 74.2144 132.629 75.1029 134.604 75.1029C136.785 75.1029 138.966 74.2144 138.966 72.2373V46.3473C138.949 44.8766 139.223 43.4169 139.774 42.0528C140.325 40.6887 141.14 39.4471 142.174 38.3997C143.208 37.3523 144.439 36.5199 145.796 35.9506C147.154 35.3813 148.611 35.0862 150.083 35.0826C151.573 35.0828 153.047 35.3871 154.415 35.9769C155.783 36.5666 157.015 37.4294 158.037 38.5122C159.06 39.595 159.849 40.875 160.359 42.2738C160.868 43.6725 161.086 45.1604 160.999 46.6462V72.1403C160.999 73.6226 162.973 75.1049 165.258 75.1049C167.649 75.1049 169.622 73.6247 169.622 72.1403V46.6442C169.622 34.5858 160.999 27.661 151.856 27.661C148.568 27.6962 145.354 28.6374 142.567 30.3809C139.781 32.1244 137.53 34.6026 136.063 37.5424C134.967 34.6522 133.02 32.1614 130.48 30.3976C127.939 28.6338 124.924 27.6798 121.831 27.661C119.069 27.5888 116.338 28.2453 113.911 29.5642C111.485 30.8832 109.45 32.818 108.01 35.1735V31.1284C108.01 29.4482 106.246 28.2628 104.063 28.2628C101.57 28.2628 99.8037 29.4482 99.8037 31.1284V72.1383C99.8037 73.6206 101.57 75.1029 104.063 75.1029C106.454 75.1029 108.427 73.6226 108.427 72.1383V46.6442C108.362 45.1469 108.602 43.6521 109.132 42.2501C109.662 40.8482 110.471 39.5681 111.511 38.4872C112.55 37.4064 113.797 36.5473 115.178 35.9618C116.559 35.3762 118.044 35.0765 119.544 35.0806M85.4156 75.1029C87.8048 75.1029 89.7797 73.6226 89.7797 72.1383V31.1284C89.7797 29.4482 87.8069 28.2628 85.4156 28.2628C83.0243 28.2628 81.1545 29.4482 81.1545 31.1284V72.1383C81.1545 73.6206 83.0263 75.1029 85.4156 75.1029ZM235.401 35.7733V31.1284C235.401 29.4482 233.636 28.2628 231.453 28.2628C228.961 28.2628 227.192 29.4482 227.192 31.1284V72.1383C227.192 73.6206 228.959 75.1029 231.453 75.1029C233.843 75.1029 235.815 73.6226 235.815 72.1383V49.6068C235.815 40.614 242.361 35.0806 249.013 35.0806H252.544C253.463 35.0154 254.321 34.5989 254.941 33.9178C255.56 33.2366 255.893 32.3432 255.869 31.4233C255.894 30.4937 255.564 29.5896 254.947 28.8935C254.329 28.1974 253.471 27.7613 252.544 27.6731H249.013C246.233 27.717 243.513 28.4884 241.125 29.9104C238.736 31.3325 236.763 33.3554 235.401 35.7773M85.4156 6.03216C84.0872 5.95224 82.7799 6.39261 81.7711 7.25981C80.7624 8.127 80.1315 9.35277 80.0125 10.677C80.1695 11.9844 80.8008 13.189 81.7867 14.0629C82.7727 14.9368 84.045 15.4194 85.363 15.4194C86.6811 15.4194 87.9534 14.9368 88.9394 14.0629C89.9253 13.189 90.5565 11.9844 90.7136 10.677C90.6026 9.36877 89.9889 8.1543 89.0011 7.28832C88.0134 6.42235 86.7284 5.97214 85.4156 6.03216ZM308.668 49.114V2.86763C308.668 1.18943 306.695 0.00195312 304.303 0.00195312C301.811 0.00195312 300.044 1.18943 300.044 2.86763V72.1363C300.044 73.6186 301.811 75.1009 304.303 75.1009C306.695 75.1009 308.668 73.6206 308.668 72.1363V58.5007L317.291 51.1881L333.811 74.2103C334.069 74.6087 334.423 74.9354 334.84 75.16C335.258 75.3846 335.726 75.4998 336.201 75.4947C337.348 75.44 338.444 75.0008 339.311 74.248C340.178 73.4951 340.767 72.4724 340.981 71.3447C340.952 70.8114 340.771 70.2975 340.462 69.8623L323.213 46.0505L337.654 33.8951C337.956 33.6633 338.198 33.3631 338.361 33.0193C338.523 32.6756 338.602 32.2981 338.59 31.9181C338.423 30.8694 337.897 29.9114 337.1 29.2083C336.304 28.5053 335.288 28.101 334.226 28.0649C333.547 28.099 332.894 28.34 332.356 28.7555L308.668 49.114ZM364.233 68.481C361.126 68.4133 358.164 67.1552 355.959 64.9668C353.754 62.7785 352.476 59.8272 352.388 56.7235V46.6442C352.478 43.5519 353.771 40.6164 355.992 38.461C358.213 36.3056 361.188 35.0999 364.284 35.0999C367.381 35.0999 370.356 36.3056 372.577 38.461C374.798 40.6164 376.091 43.5519 376.181 46.6442V56.7235C376.069 59.8369 374.768 62.7894 372.547 64.9756C370.325 67.1618 367.351 68.416 364.233 68.481ZM364.233 75.8926C375.245 75.8926 384.802 66.7018 384.802 56.7215V46.6442C384.802 36.268 375.243 27.661 364.233 27.661C353.01 27.661 343.765 36.5467 343.765 46.6442V56.7235C343.765 66.8028 353.219 75.8926 364.233 75.8926ZM275.671 75.8946C286.788 75.8946 293.022 70.755 293.022 62.6527C293.022 44.7661 267.567 51.287 267.567 41.2098C267.567 38.2451 270.061 34.291 277.023 34.291C283.049 34.291 286.269 37.1566 288.141 37.1566C290.219 37.1566 291.577 34.291 291.577 33.0045C291.577 30.2378 284.199 27.669 276.926 27.669C264.46 27.669 259.886 34.9816 259.886 41.5026C259.886 57.9069 285.238 51.0891 285.238 63.0465C285.238 66.2091 282.847 69.2706 275.368 69.2706C266.225 69.2706 264.048 64.6258 261.655 64.6258C259.888 64.6258 258.641 66.8977 258.641 68.38C258.641 71.7405 265.716 75.8905 275.679 75.8905M198.246 68.479C195.14 68.4103 192.178 67.1518 189.974 64.9636C187.77 62.7754 186.492 59.8247 186.403 56.7215V46.6442C186.484 43.5458 187.773 40.6015 189.995 38.4386C192.217 36.2757 195.197 35.0653 198.299 35.0653C201.401 35.0653 204.381 36.2757 206.603 38.4386C208.825 40.6015 210.114 43.5458 210.195 46.6442V56.7235C210.083 59.8371 208.783 62.7899 206.561 64.9762C204.339 67.1624 201.364 68.4145 198.246 68.479ZM198.246 75.8926C209.259 75.8926 218.818 66.7018 218.818 56.7215V46.6442C218.818 36.268 209.259 27.661 198.246 27.661C187.026 27.661 177.78 36.5467 177.78 46.6442V56.7235C177.78 66.8028 187.234 75.8926 198.246 75.8926Z" fill="#00A8E1"/>
<path d="M37.8449 57.0166V46.9353C37.8761 41.9437 35.925 37.1434 32.4193 33.5868C28.9135 30.0302 24.1393 28.0075 19.1432 27.9622C16.8536 27.9498 14.585 28.3983 12.4727 29.2809V36.3754C13.9505 35.7204 15.5476 35.3766 17.1642 35.3656C20.2684 35.3991 23.2429 36.6135 25.4821 38.7617C27.7212 40.9098 29.0564 43.8299 29.2156 46.9272V57.0086C29.077 60.0951 27.7825 63.0168 25.5889 65.1946C23.3953 67.3724 20.4627 68.6471 17.3725 68.7661C15.6732 68.7528 13.9986 68.358 12.4727 67.6109V74.5903C14.6869 75.6283 17.1016 76.17 19.5474 76.1776C29.3127 76.1776 37.8327 66.9869 37.8327 57.0065" fill="#00A8E1"/>
<path d="M4.43578 97.8342C6.82504 97.8342 8.79991 96.3519 8.79991 94.8716V30.7749C8.79991 29.0946 6.82706 27.9092 4.43578 27.9092C2.04451 27.9092 0.176758 29.0946 0.176758 30.7749V94.8696C0.176758 96.3499 2.04653 97.8342 4.43578 97.8342Z" fill="#00A8E1"/>
<path d="M399.607 101.379V55.1323C399.607 53.4541 397.632 52.2666 395.245 52.2666C392.751 52.2666 390.984 53.4541 390.984 55.1323V124.401C390.984 125.883 392.751 127.366 395.245 127.366C397.634 127.366 399.607 125.883 399.607 124.401V110.763L408.23 103.451L424.749 126.473C425.006 126.872 425.36 127.199 425.778 127.424C426.197 127.649 426.665 127.765 427.14 127.759C428.288 127.704 429.383 127.265 430.25 126.512C431.117 125.758 431.705 124.735 431.919 123.607C431.888 123.075 431.708 122.562 431.399 122.127L414.153 98.3111L428.593 86.1557C428.895 85.9235 429.136 85.6233 429.299 85.2795C429.461 84.9358 429.539 84.5586 429.527 84.1787C429.361 83.1301 428.834 82.172 428.038 81.469C427.242 80.7659 426.225 80.3616 425.163 80.3255C424.483 80.36 423.83 80.6009 423.291 81.0161L399.607 101.379Z" fill="#6FBF4A"/>
<path d="M137.941 79.9361C136.017 79.9276 134.1 80.1486 132.229 80.5945V87.2043C133.961 86.0924 135.986 85.5227 138.044 85.5685C139.44 85.5276 140.829 85.7788 142.122 86.3061C143.415 86.8333 144.583 87.625 145.552 88.6301C146.52 89.6352 147.268 90.8315 147.746 92.1424C148.224 93.4532 148.423 94.8495 148.329 96.2415V99.503C148.329 105.729 144.381 110.275 138.147 110.275C136.048 110.322 133.984 109.733 132.227 108.585V115.126C134.084 115.656 136.007 115.92 137.939 115.909C148.951 115.909 156.738 108.894 156.738 99.505V96.2435C156.844 92.8264 155.698 89.4881 153.516 86.8549C154.768 84.7889 156.784 83.2982 159.127 82.7048C159.613 82.5429 160.04 82.2407 160.355 81.8364C160.669 81.432 160.857 80.9436 160.894 80.4329C160.797 79.5345 160.35 78.7101 159.651 78.1371C158.952 77.5641 158.055 77.2884 157.154 77.3693C154.868 77.3693 152.167 79.4474 150.079 83.7933C146.562 81.2079 142.289 79.8536 137.923 79.9401M132.229 149.504C134.323 149.841 136.442 150.008 138.564 150.002C150.407 150.002 159.654 145.358 159.654 135.575C159.654 121.711 141.058 123.41 132.229 121.368V128.097C132.633 127.946 133.049 127.794 133.474 127.663C140.019 128.454 151.24 128.354 151.24 135.767C151.24 140.905 146.253 144.265 138.46 144.265C136.354 144.29 134.255 144.01 132.229 143.435V149.504Z" fill="#6FBF4A"/>
<path d="M186.969 120.748C183.862 120.679 180.901 119.42 178.696 117.232C176.492 115.043 175.214 112.092 175.126 108.988V98.9091C175.216 95.8173 176.509 92.8824 178.73 90.7273C180.951 88.5723 183.925 87.3668 187.021 87.3668C190.117 87.3668 193.091 88.5723 195.312 90.7273C197.533 92.8824 198.825 95.8173 198.916 98.9091V108.988C198.804 112.102 197.505 115.055 195.283 117.242C193.062 119.428 190.087 120.683 186.969 120.748ZM186.969 128.159C197.982 128.159 207.541 118.969 207.541 108.986V98.9071C207.541 88.5309 197.982 79.9238 186.969 79.9238C175.749 79.9238 166.501 88.8096 166.501 98.9071V108.986C166.501 119.066 175.955 128.159 186.969 128.159Z" fill="#6FBF4A"/>
<path d="M225.614 88.0378V83.393C225.614 81.7128 223.847 80.5273 221.666 80.5273C219.171 80.5273 217.405 81.7128 217.405 83.393V124.403C217.405 125.885 219.171 127.368 221.666 127.368C224.055 127.368 226.028 125.885 226.028 124.403V101.871C226.028 92.8806 232.573 87.3452 239.221 87.3452H242.755C243.673 87.28 244.531 86.8638 245.15 86.1831C245.77 85.5023 246.102 84.6094 246.08 83.6899C246.105 82.7594 245.776 81.854 245.159 81.1567C244.541 80.4595 243.682 80.0223 242.755 79.9336H239.221C236.442 79.978 233.723 80.7497 231.335 82.1717C228.947 83.5937 226.975 85.6163 225.614 88.0378Z" fill="#6FBF4A"/>
<path d="M266.963 121.537C262.393 121.537 258.962 119.265 258.962 114.126C258.962 107.11 267.066 106.318 275.897 106.318H279.536V111.456C279.536 116.002 272.886 121.535 266.963 121.535M264.26 128.159C267.274 128.063 270.232 127.325 272.937 125.996C275.642 124.667 278.032 122.776 279.948 120.451V124.405C279.948 126.085 281.61 127.37 283.896 127.37C286.388 127.37 288.155 126.085 288.155 124.405V99.1047C288.155 89.2233 282.859 79.9336 268.311 79.9336C261.455 79.9336 253.555 82.6014 253.555 85.6649C253.555 87.4441 254.697 89.817 256.775 89.817C258.645 89.817 260.818 86.9514 268.095 86.9514C276.409 86.9514 279.526 93.3733 279.526 99.2056V101.28H274.539C260.098 101.28 250.228 104.046 250.228 115.012C250.228 124.005 256.462 128.155 264.254 128.155" fill="#6FBF4A"/>
<path d="M307.595 87.4443V83.3912C307.595 81.711 305.725 80.5255 303.647 80.5255C301.152 80.5255 299.386 81.711 299.386 83.3912V124.403C299.386 125.885 301.152 127.368 303.647 127.368C305.933 127.368 308.011 125.885 308.011 124.403V98.907C307.977 97.4007 308.245 95.9029 308.799 94.5016C309.353 93.1002 310.181 91.8235 311.236 90.7465C312.29 89.6695 313.549 88.8138 314.94 88.2297C316.33 87.6456 317.823 87.345 319.331 87.3454C322.402 87.421 325.33 88.6553 327.527 90.8002C329.724 92.9451 331.027 95.8414 331.174 98.907V124.403C331.174 126.38 333.357 127.368 335.435 127.368C337.616 127.368 339.797 126.38 339.797 124.403V98.907C339.835 93.9836 337.943 89.241 334.525 85.6934C331.108 82.1459 326.437 80.075 321.512 79.9237C318.73 79.8116 315.969 80.4498 313.52 81.7714C311.07 83.0929 309.022 85.049 307.59 87.4342" fill="#6FBF4A"/>
<path d="M365.129 128.159C376.246 128.159 382.48 123.019 382.48 114.917C382.48 97.0306 357.025 103.552 357.025 93.4722C357.025 90.5076 359.517 86.5575 366.479 86.5575C372.505 86.5575 375.727 89.4211 377.596 89.4211C379.674 89.4211 381.033 86.5575 381.033 85.271C381.033 82.5043 373.657 79.9355 366.384 79.9355C353.916 79.9355 349.344 87.2502 349.344 93.7691C349.344 110.175 374.696 103.356 374.696 115.313C374.696 118.476 372.307 121.537 364.825 121.537C355.685 121.537 353.506 116.892 351.112 116.892C349.346 116.892 348.099 119.164 348.099 120.647C348.099 124.007 355.173 128.159 365.139 128.159" fill="#6FBF4A"/>
<path d="M451.98 121.537C447.408 121.537 443.98 119.265 443.98 114.126C443.98 107.11 452.086 106.318 460.917 106.318H464.555V111.458C464.555 116.004 457.905 121.537 451.984 121.537M464.972 120.451V124.403C464.972 126.083 466.633 127.37 468.918 127.37C471.412 127.37 473.178 126.083 473.178 124.403V99.1067C473.178 89.2253 467.879 79.9336 453.333 79.9336C446.476 79.9336 438.577 82.6034 438.577 85.6649C438.577 87.4441 439.719 89.817 441.797 89.817C443.667 89.817 445.84 86.9514 453.117 86.9514C461.426 86.9514 464.545 93.3754 464.545 99.2077V101.282H459.557C445.116 101.282 435.248 104.048 435.248 115.014C435.248 124.005 441.481 128.157 449.272 128.157C452.285 128.061 455.244 127.324 457.949 125.994C460.655 124.665 463.046 122.774 464.962 120.449" fill="#6FBF4A"/>
</g>
<defs>
<clipPath id="clip0_531_1897">
<rect width="473" height="150" fill="white" transform="translate(0.176758)"/>
</clipPath>
</defs>
</svg>
